<?xml version="1.0" encoding="UTF-8"?>
<svg width="600px" height="600px" viewBox="0 0 600 600" version="1.1" xmlns="http://www.w3.org/2000/svg" xmlns:xlink="http://www.w3.org/1999/xlink">
    <title>drivers/hass-device/assets/icon</title>
    <g id="/drivers/hass-device/assets/icon" stroke="none" stroke-width="1" fill="none" fill-rule="evenodd">
        <g id="icon" transform="translate(36.000000, 68.000000)" fill-rule="nonzero">
            <path d="M262.896045,0.0469561522 C263.827872,-0.0327253506 265.083709,0 265.598073,0.0555477436 C265.748708,0.176065007 265.862579,0.262891483 266.093136,0.459998745 C266.837401,1.09631256 267.948767,2.0987677 269.393547,3.44462948 C272.2831,6.13634569 276.527682,10.2142601 282.187656,15.7402542 C293.507612,26.792235 310.502514,43.6456109 333.853423,66.9679631 L401.216224,134.248994 C402.148731,135.179414 403.547347,135.462665 404.768671,134.968444 C405.989995,134.474223 406.797512,133.298239 406.819744,131.981475 L407.049337,117.838541 L407.255972,105.108372 L408.957838,103.550798 L410.760145,101.899964 L434.485788,101.899964 L458.209998,101.899964 L460.013738,103.552193 L461.698383,105.095448 L461.890669,148.69447 L462.088692,193.727774 C462.092454,194.591728 462.436879,195.41936 463.047248,196.031128 L495.27647,228.341386 C513.036401,246.145881 521.862094,255.012476 525.615845,259.723753 C527.492717,262.079391 527.931715,263.249977 527.987831,263.650624 C528.043962,264.051271 527.919724,264.445016 527.323449,266.005675 C526.7461,267.51662 525.826954,268.59424 525.011723,269.09784 C524.526329,269.397664 524.529437,269.415288 524.008689,269.539609 C523.487941,269.663857 522.421781,269.808078 520.488727,269.90097 C516.622633,270.086754 509.388777,270.106067 495.563458,270.106067 L466.812585,270.106067 C464.999481,270.106467 463.529775,271.575437 463.529395,273.387614 L463.529395,365.935355 C463.529395,416.880629 463.588612,440.986872 463.063029,452.439316 C462.800235,458.165575 462.251399,460.74599 462.004033,461.302828 C461.880346,461.581283 462.020784,461.374057 461.935192,461.434786 C461.849533,461.495735 461.354624,461.738502 460.556196,462.225065 C460.042509,462.538108 460.536286,462.435229 458.90886,462.615212 C457.281433,462.795195 454.068098,462.943528 448.051942,463.036861 C436.019636,463.223452 412.674369,463.229107 366.531819,463.230428 L281.154521,463.230428 L293.542539,450.841647 L310.568351,433.81304 L329.049206,433.820383 L346.986222,433.827726 L347.695089,435.068293 C355.990704,449.58889 378.007552,448.476904 385.562274,433.324274 C390.932482,422.553208 386.625788,409.594372 375.871978,404.33573 C365.979905,399.498444 354.16183,402.379711 348.34369,411.326128 L347.109629,413.225017 L326.516504,413.260998 L304.145464,413.301386 C303.278775,413.302886 302.447819,413.646767 301.833745,414.258064 L285.449356,430.575258 L274.665629,441.314747 L274.665629,428.092582 L274.665629,408.34044 L295.181265,388.071921 L315.712683,367.786219 L348.652212,367.757581 L381.108155,367.728942 L381.623305,368.559389 C390.863736,383.481515 412.982495,382.659586 420.2955,366.963115 C426.991165,352.591586 416.281275,336.188035 400.3151,336.220419 C392.234591,336.236574 384.830079,340.581863 381.201425,347.595319 L381.020623,347.946693 L355.308991,347.946693 L335.522316,347.946693 L348.833015,334.634205 L367.747233,315.719633 C368.36198,315.104221 368.707248,314.270123 368.707221,313.400491 L368.707221,294.67229 L368.707221,277.305233 L381.195687,264.837512 L393.36846,252.683861 L395.166462,253.086932 C400.591104,254.301945 405.920375,253.378605 411.044305,250.453646 C419.154797,245.823953 422.581996,237.166933 421.569741,229.195552 C420.557494,221.224244 415.096462,213.650279 406.092258,211.016773 C397.870694,208.612082 389.644524,211.21504 383.749916,217.908184 C378.785313,223.545443 376.818477,231.431789 379.215436,238.051941 C379.180905,238.103343 379.193836,238.093797 379.14082,238.165247 C378.412813,239.144909 376.19208,241.455239 371.954536,245.6906 L368.707221,248.936239 L368.707221,227.326771 L368.707221,199.789619 L369.063088,199.606038 C371.293556,198.453223 373.16289,196.607058 374.866071,194.520256 C376.56926,192.433528 378.015392,190.194427 378.737594,187.785183 C382.745287,174.415492 374.026294,160.867654 360.338526,159.466343 C349.644983,158.371613 341.219981,164.83763 338.003361,173.108689 C334.786749,181.379821 336.643895,191.826976 345.292966,198.193345 L347.446842,199.778163 L347.446842,227.384122 L347.446842,248.269326 C344.814625,245.42382 341.596242,241.929172 340.048186,240.227669 L338.123904,238.112155 L338.552954,236.411167 C341.969654,222.84923 331.213683,209.726786 316.984059,209.794784 C305.457484,209.849858 296.395254,218.496744 295.486908,230.155093 C295.165594,234.278984 295.713078,236.757841 297.985174,241.125454 C300.121784,245.232675 302.148844,247.47207 305.633518,249.557257 C310.873883,252.693114 316.528596,253.777197 322.013594,252.493158 L323.62219,252.117404 L336.106344,264.550685 L348.916242,277.30817 L348.916242,291.734994 L348.916242,306.166224 L332.432844,322.651212 C327.646017,327.438711 323.231528,331.791196 319.987432,334.935352 C319.82222,335.095508 319.751879,335.158806 319.592817,335.312574 C319.542857,333.300967 319.482325,331.376891 319.482325,328.849935 L319.482325,317.268543 L319.744922,317.130857 C321.862459,316.020119 323.779806,314.275512 325.570865,312.313324 C327.361916,310.351064 328.926518,308.27579 329.847046,306.067237 C330.854702,303.649696 331.235107,300.641464 331.230346,297.824744 C331.20544,283.089357 316.835201,272.549971 302.934355,277.164683 C287.691903,282.224837 282.785731,301.936665 294.135178,313.063436 C295.750474,314.647006 297.615951,316.183726 299.431615,317.133721 L299.691346,317.270012 L299.691346,336.069809 L299.691346,355.461985 L284.898332,369.735409 L274.665629,379.610085 L274.665629,291.503315 C274.665629,265.152904 274.71287,241.07574 274.787604,223.518126 C274.825,214.739282 274.868979,207.589242 274.918182,202.605678 C274.942795,200.113896 274.969317,198.162504 274.995671,196.831468 C275.004414,196.391608 275.012937,196.133199 275.021533,195.836092 C275.153419,195.689961 275.238284,195.590534 275.417587,195.398655 C276.111342,194.65618 277.128623,193.606464 278.372168,192.352385 C280.85926,189.844154 284.258518,186.506945 287.943362,182.971101 L300.154875,171.253493 L302.402021,171.722432 C311.639668,173.650326 321.370298,168.679099 325.929641,160.047854 C327.431735,157.204258 327.962981,153.807862 327.962981,150.388336 C327.962981,146.968809 327.431735,143.572413 325.929641,140.728817 C321.634879,132.598454 312.35675,127.377704 303.693491,128.821899 C298.89668,129.621431 293.647873,132.010114 290.526287,135.439407 C285.50465,140.955943 283.591124,149.106646 285.324553,156.66453 L285.505363,157.450477 L274.415985,168.036492 L264.26507,177.726118 L254.208865,167.944702 L243.222808,157.258304 L243.704948,155.246036 C246.680424,142.849251 238.161629,130.99212 225.112161,128.82043 C216.448513,127.378659 207.17037,132.599189 202.876012,140.728817 C201.373918,143.572413 200.842671,146.968809 200.842671,150.388336 C200.842671,153.807862 201.373918,157.204258 202.876012,160.047854 C207.446845,168.700835 217.183749,173.646141 226.462466,171.709581 L228.759836,171.230508 L234.1395,176.436792 C237.767852,179.948624 243.986757,186.049608 247.923734,189.958635 L254.139986,196.130115 L254.138517,226.548608 C254.138062,244.00305 253.91835,274.446877 253.650625,294.146588 L253.268926,322.233088 L236.113969,305.092642 L214.423107,283.421491 L214.46043,265.321505 L214.497753,247.623194 L216.387592,246.381158 C227.569718,239.036155 228.974625,222.623866 219.312043,213.240453 C211.463692,205.61883 199.220542,204.999868 190.433457,211.698666 C188.037182,213.525444 186.127425,216.387105 184.584562,219.519511 C182.497772,223.756194 181.978684,226.287702 182.337409,230.241744 C183.029452,237.869828 187.254462,245.105344 193.713782,247.779458 L193.894584,247.854065 L193.894584,258.600751 L193.894584,263.620517 L180.764696,250.504535 L162.991268,232.751663 L162.991268,215.671433 L162.991268,199.038773 L164.767751,197.917166 C172.77227,192.86017 175.751324,183.922785 174.219834,175.950596 C172.688352,167.978334 166.645401,160.688919 157.324608,158.610782 C144.123013,155.667318 131.44509,166.177404 131.44509,179.868876 C131.44509,188.01532 134.952878,194.293277 141.95905,198.773388 L143.200289,199.566531 L143.200289,219.660061 L143.200289,241.549232 C143.200274,242.420958 143.547212,243.256883 144.164582,243.872634 L164.185156,263.824218 L178.584988,278.173645 L174.265753,278.173645 C168.459544,278.173645 165.392833,278.129585 164.159324,277.990064 C163.326255,276.108064 162.078911,274.496957 160.500173,272.970224 C158.642653,271.173994 156.453798,269.551432 154.12034,268.465367 C139.88918,261.841617 123.190001,272.391063 123.138102,288.059776 C123.085938,303.807208 139.783398,314.351514 154.12034,307.678565 C156.453798,306.592499 158.642653,304.968468 160.500173,303.172238 C162.063893,301.660045 163.297072,300.061788 164.132059,298.204022 C164.26407,298.179055 164.113177,298.204022 164.769183,298.155557 C166.979741,297.985561 171.853829,297.961989 181.251148,297.961989 L199.130754,297.961989 L226.2673,325.091811 L253.405279,352.223029 L253.405279,399.684448 L253.405279,440.590043 L245.0495,432.247167 L232.054495,419.271735 L232.058903,400.798858 L232.064781,382.869602 L233.310325,382.158263 C237.230948,379.92063 240.09896,376.15017 241.844034,371.950865 C243.589115,367.751486 244.242623,363.043073 243.098188,358.655561 C241.63089,353.030198 238.060924,348.208406 233.103691,345.145173 C229.717135,343.05279 227.268784,342.434489 221.790458,342.434489 C216.308817,342.434489 213.863802,343.051982 210.457138,345.152296 C205.133436,348.434578 201.049408,354.566697 200.12542,360.725179 C198.871831,369.080392 202.998376,378.006615 210.218934,382.128082 L211.516135,382.869602 L211.522012,393.434102 L211.523482,398.075251 L209.949328,396.529205 C206.005687,392.657555 195.769252,382.627129 187.195157,374.232703 C180.623957,367.799217 176.756246,363.925437 174.742566,361.680315 C173.95366,360.800741 173.683628,360.398993 173.456841,360.073981 C173.678625,359.295157 173.817248,358.524263 173.897374,357.696093 C174.026645,356.360064 174.040457,354.906396 173.967685,353.422106 C173.822149,350.453455 173.459457,347.528936 172.344748,345.076293 C168.78916,337.2542 161.190673,332.552544 152.361012,332.552544 C140.311992,332.552544 130.774037,341.584362 130.726105,353.327305 C130.702007,359.228921 132.281259,364.040285 135.736994,368.075469 C140.108142,373.179536 145.327473,375.42341 152.411236,375.315464 C153.966934,375.291966 155.507034,375.239608 156.767779,375.173446 C157.385162,375.141136 157.797821,375.061168 158.237179,375.031501 C158.450881,375.194301 158.614859,375.311719 158.950352,375.590836 C160.013147,376.474888 161.597814,377.884203 163.605367,379.74006 C167.620466,383.451701 173.357341,388.966768 180.474761,395.969723 L197.338424,412.562363 L192.999103,412.562363 L182.297162,412.562363 L180.711533,410.425333 C175.654909,403.612421 168.446019,400.228876 160.385317,401.054109 C149.160307,402.203253 141.029125,411.404334 141.029125,422.819915 C141.029125,431.355918 145.844319,438.921512 153.559205,442.424384 C156.10353,443.57955 159.116843,443.978508 162.197667,444.050765 C165.278499,444.122729 168.264055,443.882238 170.834697,442.80873 C173.064886,441.877386 175.189396,440.265619 177.224581,438.447212 C179.259758,436.628879 181.050384,434.790645 182.160846,432.644363 L182.315816,432.344612 L199.869693,432.344612 L218.066433,432.344612 L235.923087,450.103211 L249.101767,463.209206 L162.084311,463.219487 L68.3914073,463.232705 L67.653842,462.557127 L67.653842,464 C67.6535157,463.079769 67.2666964,462.20194 66.5876675,461.580476 L64.9030226,460.03722 L64.5414106,367.607044 L64.1740606,273.741191 C64.1667252,271.949643 62.7233922,270.494943 60.931051,270.472641 L31.4368674,270.105479 C17.3507888,269.930123 9.93299374,269.816817 6.04523352,269.587707 C4.10135708,269.473153 3.04803247,269.308958 2.67881637,269.210485 C2.30960026,269.112012 2.70129818,269.317109 2.48365802,269.120163 C0.379514139,267.215767 -0.232454173,265.600475 0.0743638677,262.879804 C0.112862144,262.53849 0.00596330358,262.907708 0.127482673,262.67904 C0.248965308,262.450298 0.698924937,261.765761 1.71455209,260.559267 C3.74580639,258.146131 7.95225741,253.656033 16.2076545,245.221587 C32.7184412,228.352842 65.4913262,195.591709 130.562553,130.553729 C189.165144,71.9811566 222.003991,39.2204493 240.469072,21.0763741 C249.701613,12.0043365 255.349031,6.57948088 258.774863,3.45546076 C260.487787,1.89345804 261.653425,0.904396974 262.356525,0.367569376 C262.624573,0.162913263 262.770117,0.105731449 262.896074,0.0463026038 L262.896045,0.0469561522 Z" id="path835" fill="#000000"></path>
            <path d="M315.588865,339.418945 C315.539365,339.463145 315.454655,339.542675 315.411135,339.581055 C315.449635,339.519755 315.470235,339.484255 315.588865,339.418945 Z" id="path951" fill="#000000"></path>
            <path d="M158.449288,429.758684 C157.498172,429.082715 156.249421,427.386915 155.674296,425.990239 C154.775235,423.806915 154.775235,423.094739 155.674296,420.911415 C157.65949,416.090443 161.890648,414.65563 166.220931,417.334995 C170.626228,420.060771 171.28161,425.48437 167.650869,429.168402 C165.503948,431.346835 161.082942,431.63044 158.449288,429.758684 L158.449288,429.758684 Z" id="path949" fill="#000005"></path>
            <path d="M363.549771,429.591633 C358.668585,427.529753 357.461606,421.471504 361.171082,417.652092 C363.726646,415.020788 366.523126,414.350669 369.619673,415.627561 C372.87468,416.969781 374,418.637906 374,422.120777 C374,424.487912 373.508527,425.656999 371.809931,427.330379 C369.441272,429.663884 365.970269,430.614085 363.549771,429.591633 Z" id="path947" fill="#000009"></path>
            <path d="M217.347286,369.809601 C215.331417,367.935201 215,367.134005 215,364.135061 C215,361.23636 215.342629,360.336371 217.016645,358.837909 C221.805682,354.551094 228.964919,358.236765 228.999678,365.006941 C229.012831,367.574882 228.628823,368.458056 226.804257,370.055744 C223.74995,372.730256 220.394442,372.642915 217.347286,369.809601 L217.347286,369.809601 Z" id="path945" fill="#000005"></path>
            <path d="M396.137932,362.646719 C389.958232,358.896229 393.581888,349 401.134886,349 C405.349114,349 408.021931,351.70594 408,355.950057 C407.965187,362.625519 401.819641,366.094985 396.137932,362.646719 L396.137932,362.646719 Z" id="path943" fill="#000009"></path>
            <path d="M150.30053,361.664552 C149.692125,361.449724 148.281732,360.448777 147.166323,359.440237 C144.228376,356.783774 144.286311,352.150215 147.293962,349.231555 C152.533996,344.146555 160.746519,348.363196 159.945511,355.72738 C159.495985,359.860154 154.281261,363.070187 150.30053,361.664552 L150.30053,361.664552 Z" id="path941" fill="#000005"></path>
            <path d="M303.222672,302.788897 C300.399509,299.880482 300.252262,295.933086 302.858185,293.017588 C304.355144,291.342789 305.25423,291 308.150022,291 C311.145958,291 311.94635,291.331571 313.81887,293.348382 C316.16488,295.875163 316.644969,298.916387 315.129965,301.653817 C313.755005,304.138201 312.132169,304.974766 308.64002,304.999344 C305.952021,305.018256 305.015919,304.636306 303.222672,302.788897 L303.222672,302.788897 Z" id="path939" fill="#000005"></path>
            <path d="M141.091578,293.918863 C138.305488,292.420596 136.539039,288.845412 137.105706,285.851698 C138.224168,279.942794 145.302269,278.003282 149.730648,282.392278 C151.657719,284.302212 152.06059,285.268822 151.993082,287.820514 C151.927196,290.309956 151.446405,291.336409 149.566201,293.001429 C146.946418,295.321386 144.243695,295.613972 141.091578,293.918863 Z" id="path937" fill="#000009"></path>
            <path d="M312.578461,236.658625 C307.494423,231.125444 310.324204,224 317.605686,224 C321.395585,224 323.73319,225.641556 324.631895,228.934083 C325.46242,231.976788 324.916878,233.997996 322.696065,236.10631 C320.32627,238.356044 314.433656,238.677723 312.578461,236.658625 Z" id="path935" fill="#000005"></path>
            <path d="M394.946837,235.674047 C389.444329,229.09568 396.587788,220.01604 404.164787,223.957632 C408.469323,226.196874 409.327287,232.276664 405.834581,235.790204 C404.059269,237.576113 402.990923,238 400.265145,238 C397.421516,238 396.587172,237.635103 394.946837,235.674047 L394.946837,235.674047 Z" id="path933" fill="#000009"></path>
            <path d="M202.508168,235.563464 C198.391492,234.200872 196,231.42603 196,228.012049 C196,225.651184 198.203984,222.395242 200.428823,221.469368 C206.381107,218.992297 213.537157,226.874554 210.108697,232.131566 C209.155185,233.593619 204.785492,236.257797 203.796873,235.979846 C203.684665,235.948315 203.104751,235.760931 202.508168,235.563464 L202.508168,235.563464 Z" id="path931" fill="#000009"></path>
            <path d="M353.628939,185.388026 C350.251296,182.032179 350.123494,178.390836 353.273517,175.261148 C358.074025,170.49161 366,173.75505 366,180.501151 C366,182.913312 365.530064,184.043713 363.82159,185.741154 C360.671575,188.87085 357.006581,188.743872 353.628939,185.388026 L353.628939,185.388026 Z" id="path929" fill="#000009"></path>
            <path d="M148.331043,185.776982 C146.125965,184.200265 144.599322,180.441137 145.093127,177.804085 C145.575237,175.229492 149.220295,172 151.64408,172 C156.018695,172 160,176.161547 160,180.734215 C160,184.011182 156.68318,187 153.046599,187 C151.393776,187 149.271782,186.449642 148.331043,185.776982 Z" id="path927" fill="#000009"></path>
            <path d="M218.482351,156.16327 C216.774687,155.147671 215,151.534773 215,149.073936 C215,146.090484 219.314548,142 222.461419,142 C227.027379,142 230.734624,146.589585 229.875492,151.178646 C229.044211,155.618909 222.431588,158.511999 218.482351,156.16327 L218.482351,156.16327 Z" id="path925" fill="#000009"></path>
            <path d="M301.105622,155.00314 C298.927872,152.255875 298.500594,150.046967 299.541535,146.917157 C300.663749,143.542975 302.878888,142 306.600748,142 C308.903631,142 309.999686,142.498398 311.723288,144.32932 C316.56362,149.471035 313.218081,157 306.092991,157 C303.306401,157 302.401258,156.6376 301.105622,155.00314 Z" id="path903" fill="#000009"></path>
        </g>
    </g>
</svg>