<?xml version="1.0" encoding="utf-8"?>
<!-- Generator: Adobe Illustrator 19.0.0, SVG Export Plug-In . SVG Version: 6.00 Build 0)  -->
<svg version="1.1" id="Layer_2" xmlns="http://www.w3.org/2000/svg" xmlns:xlink="http://www.w3.org/1999/xlink" x="0px" y="0px"
	 viewBox="582 22.9 540 860" style="enable-background:new 582 22.9 540 860;" xml:space="preserve">
<style type="text/css">
	.st0{fill:none;stroke:#000000;stroke-width:32;stroke-linejoin:bevel;stroke-miterlimit:10;}
	.st1{fill:none;stroke:#000000;stroke-width:12;stroke-miterlimit:10;}
	.st2{fill:none;stroke:#000000;stroke-width:12;stroke-linecap:round;stroke-miterlimit:10;}
	.st3{stroke:#000000;stroke-width:12;stroke-miterlimit:10;}
	.st4{fill:none;stroke:#000000;stroke-width:24;stroke-linejoin:round;stroke-miterlimit:10;}
</style>
<path id="XMLID_45_" class="st0" d="M852.4,50.3C721.3,50.3,615,156.6,615,287.7c0,63.2,24.7,120.7,65,163.2
	c1.2,1.3,2.1,2.8,2.6,4.6l44.4,153c2.4,8.4,6.9,16.2,13.5,22"/>
<path id="XMLID_19_" class="st1" d="M794.9,825.9l-25.2-34.8c-2-2.7-2.7-6.2-2-9.5c3.7-18.8,2.5-38.2-3.6-56.4l-0.4-1.2
	c-1.2-3.4-1.3-7.1-0.3-10.6c0.4-1.7,0.5-3.4,0.2-5.1l-7.2-42.7"/>
<path id="XMLID_3_" class="st2" d="M763.1,713.4c0,4.4,33.4,12.8,74.8,12.8"/>
<path id="XMLID_43_" class="st2" d="M769.4,750.9c0,5,30.6,11.3,68.4,11.3"/>
<path id="XMLID_5_" class="st2" d="M767.6,782.3c0,6.3,31.4,13.1,70.3,13.1"/>
<path id="XMLID_17_" class="st3" d="M852.4,862.5c-32.1,0-57.5-13.4-57.5-36.7h57.5V862.5z"/>
<path id="XMLID_18_" class="st0" d="M774.3,685.5"/>
<path id="XMLID_47_" class="st0" d="M852.4,50.3c131.1,0,237.4,106.3,237.4,237.4c0,63.2-24.7,120.7-65,163.2
	c-1.2,1.3-2.1,2.8-2.6,4.6l-44.4,153c-2.4,8.4-6.9,16.2-13.5,22"/>
<path id="XMLID_46_" class="st1" d="M909.9,825.9l25.2-34.8c2-2.7,2.7-6.2,2-9.5c-3.7-18.8-2.5-38.2,3.6-56.4l0.4-1.2
	c0.9-2.6,1.1-5.3,0.8-8c-0.5-4.6-0.4-9.2,0.3-13.7l6.2-36.7"/>
<path id="XMLID_25_" class="st4" d="M1022.9,448.1c-54.9,26.2-286,26.2-340.9,0"/>
<path id="XMLID_24_" class="st3" d="M852.4,862.5c32.1,0,57.5-13.4,57.5-36.7h-57.5V862.5z"/>
<path id="XMLID_23_" class="st0" d="M930.5,685.5"/>
<path id="XMLID_22_" class="st0" d="M964.2,630.3c-13.9,12.1-22.1,43.1-28.9,49.9c-11.2,11.2-82.9,12.5-82.9,12.5
	s-71.7-1.3-82.9-12.5c-6.8-6.8-15-37.8-28.9-49.9"/>
</svg>
