<?xml version="1.0" encoding="utf-8"?>
<!-- Generator: Adobe Illustrator 19.0.0, SVG Export Plug-In . SVG Version: 6.00 Build 0)  -->
<svg version="1.1" id="Layer_2_1_" xmlns="http://www.w3.org/2000/svg" xmlns:xlink="http://www.w3.org/1999/xlink" x="0px" y="0px"
	 viewBox="-27 34.8 540 594" style="enable-background:new -27 34.8 540 594;" xml:space="preserve">
<style type="text/css">
	.st0{fill:#FFFFFF;}
	.st1{fill:none;stroke:#000000;stroke-width:12;stroke-miterlimit:10;}
	.st2{fill:none;stroke:#000000;stroke-width:4;stroke-linecap:round;stroke-miterlimit:10;}
	.st3{fill:none;stroke:#000000;stroke-width:4;stroke-miterlimit:10;}
</style>
<g id="Layer_2">
	<path id="XMLID_28_" class="st0" d="M190.2,475.7"/>
	<path id="XMLID_29_" class="st1" d="M176.6,217.2l6.3,288.5c0,44,38.8,104,80.7,104c76,0,140.3-99.9,140.3-164l1.2-267.8
		c0-54.8-44.8-124.2-98.9-124.2C200.4,53.7,176.6,165.2,176.6,217.2z"/>
	<path id="XMLID_34_" class="st1" d="M270.8,58.4L155.4,90.7c-28.5,12-75.5,55.5-74.5,111l11,250c3.5,33.5,12,57.5,31.5,74
		l104.3,69.8"/>
	<path id="XMLID_36_" class="st2" d="M330.4,90.7c-59.6-32.3-113.5,38-115.4,95c-6.5,105.3,50.3,154.3,115.4,122"/>
	<path id="XMLID_41_" class="st3" d="M313.2,289c0,5.1-10,9-22.3,9c-36.8,0-66.7-45.9-66.7-79.3v-30c0-47.9,29.8-86.7,66.7-86.7
		c18.9,1.3,33.7,8.6,33.7,16.4"/>
	<g id="XMLID_45_">
		<path d="M265.1,108.7c0,0,1.3,0,3.7-0.1c2.4,0,6-0.1,10.6-0.1c4.6,0,10.1,0.1,16.5,0.5c1.6,0.1,3.2,0.2,4.9,0.4
			c0.4,0,0.9,0.1,1.3,0.1c0.5,0.1,0.9,0.1,1.4,0.2c0.9,0.1,1.7,0.3,2.6,0.4c1.8,0.4,3.6,0.8,5.4,1.3c1.8,0.6,3.7,1.1,5.6,1.8
			c3.8,1.3,7.6,2.8,11.5,4.7c3.8,1.9,7.7,4,11.5,6.6c7.6,5,15,11.3,21.4,18.9c6.4,7.6,11.9,16.5,15.7,26.2
			c3.8,9.8,5.8,20.4,5.5,31.1c-0.1,10.6-1.9,21.2-5.3,31.1c-3.4,9.9-8.5,19-14.7,26.8c-6.2,7.8-13.4,14.3-21.1,19.4
			c-7.6,5.1-15.5,8.7-23,11.3c-0.9,0.3-1.9,0.6-2.8,0.9c-0.9,0.3-1.9,0.6-2.8,0.8c-0.9,0.2-1.8,0.5-2.7,0.7
			c-0.9,0.2-1.8,0.4-2.7,0.5c-1.8,0.3-3.6,0.5-5.2,0.7c-1.7,0.2-3.3,0.3-4.9,0.4c-6.5,0.4-12,0.2-16.6-0.2
			c-4.6-0.3-8.1-0.9-10.5-1.3c-2.4-0.4-3.7-0.7-3.7-0.7s1.3,0.2,3.7,0.3c2.4,0.1,6,0.3,10.5,0.2c4.5-0.1,10-0.4,16.2-1.4
			c1.5-0.2,3.2-0.6,4.8-0.8c1.6-0.4,3.3-0.7,5-1.1c3.4-0.7,7-1.6,10.6-2.8c7.2-2.4,14.8-5.9,22.1-10.8c7.3-4.8,14.2-11.1,20.1-18.5
			c5.9-7.5,10.8-16.2,14.1-25.6c3.2-9.5,5-19.6,5.1-29.8c0.2-10.1-1.7-20.3-5.3-29.6c-3.6-9.3-8.8-17.8-15-25.1
			c-6.2-7.3-13.3-13.3-20.6-18.2c-3.6-2.4-7.4-4.5-11.1-6.3c-3.7-1.8-7.4-3.3-11-4.6c-0.9-0.3-1.8-0.6-2.7-0.9
			c-0.9-0.3-1.8-0.5-2.7-0.8c-0.9-0.3-1.8-0.4-2.6-0.7c-0.9-0.2-1.7-0.5-2.5-0.7c-0.9-0.2-1.7-0.4-2.6-0.6c-0.4-0.1-0.8-0.2-1.2-0.3
			c-0.4-0.1-0.8-0.2-1.2-0.2c-1.6-0.3-3.2-0.6-4.8-0.8c-6.2-0.9-11.7-1.5-16.2-2C270.3,109.2,265.1,108.7,265.1,108.7z"/>
	</g>
</g>
</svg>
