<?xml version="1.0" encoding="utf-8"?>
<!-- Generator: Adobe Illustrator 19.0.0, SVG Export Plug-In . SVG Version: 6.00 Build 0)  -->
<svg version="1.1" id="Layer_2" xmlns="http://www.w3.org/2000/svg" xmlns:xlink="http://www.w3.org/1999/xlink" x="0px" y="0px"
	 viewBox="0 0 540 422" style="enable-background:new 0 0 540 422;" xml:space="preserve">
<style type="text/css">
	.st0{fill:none;stroke:#000000;stroke-width:4;stroke-miterlimit:10;}
	.st1{fill:none;stroke:#000000;stroke-width:2;stroke-miterlimit:10;}
	.st2{fill:none;stroke:#000000;stroke-miterlimit:10;}
</style>
<line id="XMLID_1_" class="st0" x1="167" y1="130.3" x2="167" y2="319"/>
<line id="XMLID_7_" class="st0" x1="120.6" y1="112.5" x2="120.6" y2="295"/>
<line id="XMLID_8_" class="st0" x1="171.5" y1="53.5" x2="327.5" y2="37.5"/>
<line id="XMLID_9_" class="st0" x1="210.5" y1="73" x2="381.5" y2="53.5"/>
<line id="XMLID_10_" class="st0" x1="433.5" y1="107" x2="434.5" y2="288.5"/>
<line id="XMLID_11_" class="st0" x1="388.5" y1="345" x2="226" y2="373"/>
<line id="XMLID_12_" class="st0" x1="130.5" y1="329.8" x2="181.6" y2="367.8"/>
<path id="XMLID_13_" class="st0" d="M120.6,295c0,23.2,3.2,29.3,9.9,34.8"/>
<path id="XMLID_14_" class="st0" d="M167,319c0,63,32.8,58.6,59,54"/>
<path id="XMLID_15_" class="st0" d="M434.5,288.5c0,31.2-13,47.3-46,56.5"/>
<path id="XMLID_16_" class="st0" d="M167,130.3c0-31.7,17.5-53.3,43.5-57.3"/>
<path id="XMLID_17_" class="st0" d="M120.6,112.5c0-32.6,25.4-55.8,50.9-59"/>
<line id="XMLID_18_" class="st0" x1="353" y1="39.6" x2="405.4" y2="54.8"/>
<path id="XMLID_19_" class="st0" d="M433.5,107c0-29.6-6.3-57.9-52-53.5"/>
<path id="XMLID_20_" class="st0" d="M353,39.6c-7.3-2.1-17.4-3-25.5-2.1"/>
<path id="XMLID_21_" class="st1" d="M263.4,213c0-25.7,16.7-47.1,40.5-47.1"/>
<path id="XMLID_22_" class="st1" d="M338.9,203.8c0-19-11.5-37.9-35-37.9"/>
<path id="XMLID_23_" class="st1" d="M263.4,213c0,20.5,16.2,35.6,35.5,35.6"/>
<path id="XMLID_28_" class="st1" d="M260,209.8c0-25.7,18.6-48.3,49.1-43.5"/>
<path id="XMLID_27_" class="st1" d="M260,209.8c0,21.6,6.6,24.6,21.1,34.2"/>
<path id="XMLID_24_" class="st1" d="M338.9,203.8c0,23.3-20,44.9-40,44.9"/>
<ellipse id="XMLID_25_" class="st2" cx="302.7" cy="114.3" rx="9.5" ry="10"/>
<g id="XMLID_26_">
	<path id="XMLID_37_" d="M262.5,223.7c0,0,0.2,0.9,0.7,2.5c0.4,1.6,1,3.8,2,6.4c0.9,2.6,2.2,5.6,4.1,8.5c0.9,1.5,2,2.9,3.2,4.2
		c1.2,1.3,2.6,2.6,4.1,3.7c1.5,1.1,3.1,2.1,4.7,2.8c1.6,0.8,3.4,1.4,5,1.9c0.8,0.2,1.7,0.4,2.5,0.6c0.8,0.1,1.6,0.3,2.4,0.4
		c0.8,0.1,1.6,0.2,2.3,0.2c0.8,0,1.5,0.1,2.2,0.1c1.4,0,2.7,0,3.8,0c1.1-0.1,2.1-0.1,2.9-0.2c1.6-0.2,2.6-0.3,2.6-0.3
		s-0.9,0.1-2.6,0.4c-0.8,0.1-1.8,0.2-2.9,0.3c-1.1,0.1-2.4,0.1-3.8,0.2c-0.7,0-1.4,0-2.2,0c-0.8-0.1-1.5-0.1-2.4-0.2
		c-0.8-0.1-1.6-0.2-2.5-0.3c-0.8-0.1-1.7-0.3-2.6-0.5c-1.7-0.5-3.5-1-5.2-1.7c-1.7-0.7-3.4-1.7-5-2.7c-1.6-1.1-3-2.3-4.3-3.7
		c-1.3-1.3-2.5-2.8-3.5-4.3c-2-3-3.5-6-4.5-8.6c-1.1-2.6-1.8-4.9-2.3-6.5c-0.5-1.6-0.7-2.5-0.7-2.5L262.5,223.7z"/>
</g>
<g id="XMLID_29_">
	<path id="XMLID_39_" d="M355.3,196.3c0,0,0-0.3-0.1-1c0-0.3-0.1-0.7-0.2-1.2c-0.1-0.5-0.2-1-0.3-1.6c-0.1-0.6-0.2-1.3-0.4-2
		c-0.1-0.4-0.2-0.7-0.3-1.1c-0.1-0.4-0.2-0.8-0.3-1.2c-0.1-0.4-0.2-0.8-0.4-1.2c-0.2-0.4-0.3-0.9-0.5-1.3c-0.3-0.9-0.5-1.8-0.9-2.8
		c-0.7-1.9-1.5-4-2.7-6.1c-1.1-2.1-2.4-4.2-4-6.3c-1.6-2-3.3-4.1-5.3-5.9c-2-1.8-4.1-3.6-6.4-5.1c-2.3-1.5-4.7-2.9-7.2-4
		c-2.5-1.1-5-2-7.5-2.7c-2.5-0.7-5-1.1-7.3-1.5c-1.2-0.1-2.3-0.3-3.4-0.4c-1.1-0.1-2.2-0.1-3.2-0.2c-2.1,0.1-4-0.1-5.7-0.1
		c-1.7-0.1-3.2,0-4.4,0c-2.5,0.1-3.9,0.2-3.9,0.2s0.3-0.1,1-0.3c0.6-0.2,1.6-0.4,2.8-0.7c1.2-0.2,2.7-0.6,4.4-0.8
		c0.9-0.1,1.8-0.2,2.7-0.4c1-0.1,2,0,3.1,0c1.1,0,2.2,0.1,3.3,0.2c1.1,0.1,2.3,0.2,3.6,0.4c2.4,0.4,5,0.8,7.6,1.6
		c2.6,0.7,5.2,1.7,7.8,2.8c2.6,1.1,5.1,2.6,7.5,4.1c2.4,1.6,4.6,3.4,6.7,5.3c2.1,1.9,3.9,4,5.5,6.2c1.6,2.1,3,4.3,4.2,6.5
		c1.2,2.2,2.1,4.3,2.8,6.4c0.3,1,0.8,2,0.9,2.9c0.1,0.5,0.2,1,0.3,1.4c0.1,0.5,0.1,0.9,0.2,1.3c0.1,0.9,0.2,1.7,0.2,2.4
		c0.1,0.8,0.1,1.4,0.1,2.1c0,1.3,0,2.2-0.1,2.9C355.4,196,355.3,196.3,355.3,196.3z"/>
</g>
</svg>
