<?xml version="1.0" encoding="utf-8"?>
<!-- Generator: Adobe Illustrator 19.0.0, SVG Export Plug-In . SVG Version: 6.00 Build 0)  -->
<svg version="1.1" id="Layer_1" xmlns="http://www.w3.org/2000/svg" xmlns:xlink="http://www.w3.org/1999/xlink" x="0px" y="0px"
	 viewBox="0 0 540 792" style="enable-background:new 0 0 540 792;" xml:space="preserve">
<style type="text/css">
	.st0{display:none;}
	.st1{display:inline;}
	.st2{fill:none;stroke:#000000;stroke-width:12;stroke-linecap:round;}
	.st3{fill:none;stroke:#000000;stroke-width:8;}
	.st4{fill:none;stroke:#000000;stroke-width:2;stroke-miterlimit:10;}
	.st5{fill:none;stroke:#000000;stroke-width:7;stroke-miterlimit:10;}
</style>
<g id="Layer_1_2_" class="st0">
	<g id="Layer_1_1_" class="st1">
		
			<image style="overflow:visible;enable-background:new    ;" width="512" height="512" id="XMLID_2_" xlink:href="163C734D.png"  transform="matrix(0.8887 0 0 0.8887 36.5 53)">
		</image>
		
			<image style="overflow:visible;enable-background:new    ;" width="352" height="350" id="XMLID_1_" xlink:href="163C7353.jpg"  transform="matrix(0.3433 0 0 0.3433 367.6629 209.6719)">
		</image>
	</g>
	<g id="Layer_2" class="st1">
	</g>
</g>
<g id="Layer_2_1_">
	<path class="st2" d="M157.4,368.3c-32.6-18.4-54.7-53.3-54.7-93.4c0-59.2,48-107.1,107.1-107.1S317,215.7,317,274.9
		c0,3.7-0.2,7.4-0.6,11"/>
	<path class="st3" d="M406.1,403.7c0-34.1-27.6-61.7-61.7-61.7c-7.7,0-15.1,1.4-22,4c-8.2-24.4-31.3-42-58.4-42
		c-34.1,0-61.7,27.6-61.7,61.7c0,1.4,0.1,2.7,0.1,4.1c-25.1,1.4-45.1,22.3-45.1,47.7c0,26.4,21.4,47.8,47.8,47.8h146.3l0,0
		C382.2,461.8,406.1,435.3,406.1,403.7z"/>
	<line class="st2" x1="92" y1="418" x2="129.1" y2="374.4"/>
	<line class="st2" x1="39.6" y1="298.5" x2="83.1" y2="288"/>
	<line class="st2" x1="61.3" y1="174.1" x2="104.5" y2="202.1"/>
	<line class="st2" x1="164" y1="133" x2="170.5" y2="155"/>
	<line class="st2" x1="244.7" y1="148.5" x2="259.5" y2="98.8"/>
	<line class="st2" x1="297" y1="174.1" x2="310.7" y2="157.7"/>
	<line class="st2" x1="323" y1="225.9" x2="382" y2="211.5"/>
	<line class="st2" x1="86" y1="247.5" x2="67" y2="243.5"/>
	<line class="st2" x1="95.1" y1="336" x2="81.5" y2="343.5"/>
	<g>
		<circle class="st2" cx="443.4" cy="269.8" r="55.3"/>
		<g>
			<g>
				<path d="M447.9,282.4L447.9,282.4v-21.2c0-1.7-1.4-3-3-3h-0.2c-1.7,0-3,1.4-3,3v21.1c-3.8,1.3-6.5,4.8-6.5,9.1
					c0,5.3,4.3,9.5,9.5,9.5s9.5-4.3,9.5-9.5C454.2,287.2,451.6,283.7,447.9,282.4z"/>
			</g>
			<path class="st4" d="M452.2,278L452.2,278v-39.6c0-4.2-3.4-7.5-7.5-7.5c-4.2,0-7.5,3.4-7.5,7.5V278l0,0
				c-4.7,2.6-7.8,7.6-7.8,13.3c0,8.5,6.9,15.3,15.3,15.3c8.5,0,15.3-6.9,15.3-15.3C460,285.6,456.8,280.7,452.2,278z"/>
		</g>
	</g>
	<g>
		<path class="st5" d="M458.5,377.4l-15.1-32.3l-16.5,35.3c-0.6,1.8-1,3.8-1,5.8c0,9.7,7.8,17.5,17.5,17.5s17.5-7.8,17.5-17.5
			C460.9,383,458.5,377.4,458.5,377.4z"/>
	</g>
</g>
</svg>
