<?xml version="1.0" encoding="UTF-8"?>
<svg width="960px" height="960px" viewBox="0 0 960 960" version="1.1" xmlns="http://www.w3.org/2000/svg" xmlns:xlink="http://www.w3.org/1999/xlink">
    <title>custom-capabilities/action</title>
    <g id="custom-capabilities/action" stroke="none" stroke-width="1" fill="none" fill-rule="evenodd">
        <g id="noun-touch-1188232" transform="translate(171.000000, 0.000000)" fill="#000000" fill-rule="nonzero">
            <path d="M116.311622,460.877165 C126.548949,466.995007 139.786032,463.859219 146.183379,453.785768 C152.581774,443.722549 149.817627,430.390009 139.948783,423.70813 C95.9693169,395.915501 64.1503135,352.476727 50.9127065,302.127837 C37.6756237,251.78944 44.0024713,198.297678 68.6132557,152.437478 C93.2240401,106.577278 134.295478,71.76697 183.54011,55.0216089 C232.782121,38.2870039 286.529269,40.8592781 333.960315,62.2258132 C381.380877,83.5923483 418.94203,122.165968 439.067071,170.166888 C459.204168,218.157314 460.401869,272.01898 442.424827,320.859397 C439.967837,326.475114 439.947368,332.849265 442.37364,338.464982 C444.810162,344.09093 449.457896,348.44635 455.221535,350.485543 C460.995397,352.535099 467.342686,352.084183 472.768506,349.25581 C478.194327,346.427489 482.19732,341.457136 483.814609,335.554416 C505.507669,276.178298 503.910822,210.786653 479.330701,152.549105 C454.75058,94.3115568 409.020164,47.5698839 351.362799,21.765815 C293.715916,-4.04822292 228.432054,-7.01060138 168.675436,13.4650165 C108.929301,33.9401096 59.1552698,76.3460379 29.4145524,132.114937 C-0.336648296,187.883837 -7.85045135,252.863603 8.38691112,313.960692 C24.6234874,375.05778 63.4025211,427.710043 116.903315,461.313573 L116.311622,460.877165 Z" id="Path"></path>
            <path d="M371.269423,315.798429 C382.745553,319.805805 395.297686,313.75882 399.323643,302.279667 C417.244768,250.346192 407.008585,192.837076 372.274076,150.281171 C337.549273,107.725265 283.261275,86.191489 228.813266,93.3571699 C174.362635,100.531772 127.49543,135.390933 104.962868,185.487727 C82.4203377,235.587145 87.4207828,293.78108 118.170779,339.299291 C125.251092,348.615988 138.3769,350.768316 148.06118,344.20874 C157.744149,337.638931 160.623543,324.653069 154.598509,314.619804 C132.39436,281.719594 128.808037,239.656969 145.130635,203.476971 C161.463726,167.296974 195.368544,142.15543 234.725769,137.05208 C274.082994,131.947943 313.274962,147.6088 338.286369,178.437757 C363.287807,209.25727 370.553313,250.839734 357.457671,288.321152 C353.861117,299.708051 359.978327,311.894694 371.269948,315.800528 L371.269423,315.798429 Z" id="Path"></path>
            <path d="M546.905612,425.993262 L544.989519,425.993262 C535.501256,425.972757 526.115556,427.869596 517.376187,431.571028 C515.388378,407.05563 500.756512,385.360875 478.777327,374.326084 C456.808898,363.303893 430.669745,364.554625 409.850231,377.627597 C401.232836,362.852685 387.543684,351.717626 371.322195,346.302861 C355.102018,340.889147 337.468517,341.576065 321.708956,348.230485 L321.708956,251.069733 C321.708956,225.672391 308.173255,202.21375 286.20535,189.520066 C264.22669,176.826645 237.156076,176.826645 215.177153,189.520066 C193.208724,202.213487 179.673548,225.671866 179.673548,251.069733 L179.673548,513.15388 L176.589311,508.447557 L175.124076,506.386645 L175.11383,506.386645 C163.063851,491.745074 145.562029,482.640059 126.646883,481.204539 C107.74223,479.758835 89.0631624,486.095387 74.9325436,498.747861 C62.0423871,510.45697 53.978465,526.555323 52.3185698,543.902832 C50.6586483,561.251392 55.5258294,578.589977 65.9770312,592.522581 L221.825663,836.673881 L221.825663,937.955618 C221.825663,950.136409 231.692964,960 243.855474,960 L535.884763,960 C548.057503,960 557.924804,950.136409 557.924804,937.955618 L557.924804,837.269717 L613.891182,758.482784 C616.555199,754.750536 617.98977,750.280186 618,745.686731 L618,496.983974 C617.959014,478.138474 610.458599,460.081472 597.128024,446.773578 C583.79745,433.465684 565.732187,425.990165 546.908849,425.990165 L546.905612,425.993262 Z M574.366806,738.636907 L518.400427,817.423841 C515.736411,821.156088 514.301839,825.626438 514.291609,830.219893 L514.291609,915.915382 L265.897523,915.915382 L265.897523,830.219893 C265.887278,825.99549 264.657691,821.86348 262.372607,818.305522 L100.78464,568.424215 L99.6062932,566.804196 L99.6062932,566.814448 C91.4807284,555.689626 93.5608436,540.135664 104.309505,531.534092 C109.371293,527.002059 116.031596,524.674621 122.804431,525.053909 C129.587495,525.443539 135.930141,528.519473 140.448949,533.594847 L183.197546,600.333805 L183.197546,600.323553 C188.484659,608.52615 198.546855,612.268635 207.912095,609.520699 C217.267105,606.772763 223.712052,598.180641 223.732513,588.419418 L223.732513,251.076111 C223.732513,236.178094 235.802952,224.100721 250.690071,224.100721 C265.57824,224.100721 277.64763,236.179144 277.64763,251.076111 L277.64763,519.176371 C277.64763,531.346926 287.5047,541.220753 299.67744,541.220753 C311.85018,541.220753 321.707251,531.346926 321.707251,519.176371 L321.707251,413.784148 C321.707251,398.886131 333.77769,386.808758 348.664809,386.808758 C363.551929,386.808758 375.622368,398.887181 375.622368,413.784148 L375.622368,519.176371 C375.622368,531.346926 385.489669,541.220753 397.652178,541.220753 C409.824918,541.220753 419.692219,531.346926 419.692219,519.176371 L419.692219,437.887973 C419.692219,422.989956 431.752428,410.912583 446.639285,410.912583 C461.526142,410.912583 473.596844,422.991006 473.596844,437.887973 L473.596844,552.396235 C473.596844,564.56679 483.464144,574.440617 495.626654,574.440617 C507.799394,574.440617 517.666695,564.56679 517.666695,552.396235 L517.666695,527.398917 L517.666695,526.373606 L517.666695,496.978121 C517.666695,489.770072 520.556297,482.859416 525.689696,477.79428 C530.833325,472.73938 537.780596,469.960733 544.98388,470.073601 L547.484005,470.073601 C562.331254,470.073601 574.360248,482.121051 574.360248,496.978121 L574.366806,738.636907 Z" id="Shape"></path>
        </g>
    </g>
</svg>