<svg height="960" viewBox="0 0 960 960" width="960" xmlns="http://www.w3.org/2000/svg"><g transform="translate(127 99.6)"><path d="m299.09262 700.071538c-3.983852 7.126261-9.520731 12.691531-17.015775 16.899419-14.990087 8.483644-32.140907 8.620061-46.658333 0-7.224952-4.275078-12.829354-10.112504-17.15082-17.848909-4.321467-7.804952-6.4822-15.678453-6.4822-24.093549 0-8.552192 2.09321-16.425014 6.414677-24.093549 4.253943-7.669893 9.858345-13.370902 16.948251-17.57879 7.157429-4.207887 14.855041-6.243962 23.362928-6.243962 13.234491 0 24.105681 4.480043 33.086228 13.777438 9.048071 9.298074 13.504583 20.632223 13.504583 34.681137 0 9.230205-2.025688 17.238765-6.009539 24.500765m32.68109-162.071538h-18.096141c-5.401833 0-9.790823 4.411495-9.790823 9.841027v57.213696c-3.376145-2.579027-6.887337-4.886579-10.601097-6.786915-10.871189-5.768878-23.092837-8.619382-36.327328-8.619382-22.890267 0-42.742004 8.415775-59.015026 24.907979-16.2055 16.492204-24.443295 36.649342-24.443295 59.860593 0 23.618465 8.170273 44.047759 24.173203 60.539284 16.137976 16.627943 35.92219 25.043718 58.744935 25.043718 12.829354 0 24.848432-2.714766 35.719621-8.144298 4.051375-2.036075 7.967704-4.411495 11.681464-7.126261v1.696728c0 5.429533 4.38899 9.841028 9.790823 9.841028h18.096141c5.401833 0 9.790822-4.411495 9.790822-9.841028v-198.585142c.135046-5.429532-4.321466-9.841027-9.723299-9.841027"/><path d="m405.975 662.875994h1.08c19.2375 0 28.0125 1.151351 31.995 2.1002 7.83 1.895666 13.7025 5.214267 18.021825 10.090579 3.983175 4.605405 5.940675 9.820349 5.940675 15.984143 0 4.875634-1.418175 9.27786-4.253175 13.476906-2.9025 4.334499-6.681825 7.382194-11.475 9.41399-3.644325 1.557711-11.34 3.386328-27.2025 3.386328h-14.039325v-54.452146zm41.3775-62.782512c0 4.606082-1.215 8.601272-3.780675 12.394636-2.565 3.792009-6.006825 6.434022-10.4625 8.194235-3.509325 1.422257-10.866825 3.047695-25.919325 3.047695h-1.215v-42.193641h12.4875c13.8375 0 20.3175 2.912242 23.2875 5.350397 3.846825 3.115422 5.6025 7.315145 5.6025 13.206678zm49.7475 65.221345c-3.578175-7.788554-8.7075-14.561209-15.1875-20.047736-2.903175-2.505883-6.278175-4.740859-10.125-6.840382 2.9025-2.979968 5.4-6.230843 7.4925-9.752623 5.0625-8.533545 7.626825-18.150716 7.626825-28.512878 0-11.03875-2.901825-21.266136-8.639325-30.409221-5.805-9.143084-13.770675-16.051192-23.760675-20.453418-9.585-4.266772-22.41-6.298569-39.216825-6.298569h-38.0025c-5.4 0-9.7875 4.402226-9.7875 9.82035v193.3593c0 5.418124 4.3875 9.82035 9.7875 9.82035h52.919325c21.533175 0 39.15-6.298569 52.245675-18.760254 13.2975-12.597139 20.0475-28.241294 20.0475-46.527463 0-9.143084-1.8225-17.677307-5.4-25.397456z"/><path d="m0 217v28.535097c0 8.284271 6.715729 15 15 15s15-6.715729 15-15v-28.535097c0-8.284271-6.715729-15-15-15s-15 6.715729-15 15z"/><path d="m56 186.39823v89.543427c0 8.284271 6.715729 15 15 15s15-6.715729 15-15v-89.543427c0-8.284271-6.715729-15-15-15s-15 6.715729-15 15z"/><path d="m677 217v28.535097c0 8.284271 6.715729 15 15 15s15-6.715729 15-15v-28.535097c0-8.284271-6.715729-15-15-15s-15 6.715729-15 15z"/><path d="m621 186.39823v89.543427c0 8.284271 6.715729 15 15 15s15-6.715729 15-15v-89.543427c0-8.284271-6.715729-15-15-15s-15 6.715729-15 15z"/><path d="m113 158.399457v146.138391c0 8.284271 6.715729 15 15 15s15-6.715729 15-15v-146.138391c0-8.284272-6.715729-15-15-15s-15 6.715728-15 15z"/><path d="m564 142.399554v178.07444c0 8.284271 6.715729 15 15 15s15-6.715729 15-15v-178.07444c0-8.284272-6.715729-15-15-15s-15 6.715728-15 15z"/><path d="m573.757599 374.349133c14.27792 27.162449-5.409647 59.650867-36.005189 59.650867h-184.726132-184.814814c-30.595543 0-50.194426-32.577185-36.005189-59.650867l184.814814-352.5792303c15.25343-29.02653695 56.756949-29.02653695 72.010379 0zm-220.257599-.349133c16.517857 0 30-13.413842 30-29.84802s-13.392857-29.84802-30-29.84802c-16.517857 0-30 13.325009-30 29.84802 0 16.434178 13.392857 29.84802 30 29.84802zm-20.178571-228.301819v118.947912c0 11.459508 9.285714 20.698181 20.803571 20.698181s20.803571-9.238673 20.803571-20.698181v-118.947912c0-11.459508-9.285714-20.698181-20.803571-20.698181s-20.803571 9.238673-20.803571 20.698181z"/></g></svg>