<svg enable-background="new 0 0 1417.3 775" viewBox="0 0 1417.3 775" xmlns="http://www.w3.org/2000/svg"><path d="m142.4 775c-9.8 0-19.5-4.6-25.6-13.2l-90.8-127.4c-33.6-47.1-34.7-111.2-2.7-159.5l29.4-44.3c17.3-26.2 17.3-60 0-86.1l-29.4-44.3c-32-48.4-30.9-112.4 2.7-159.6l90.8-127.4c10.1-14.1 29.7-17.4 43.8-7.4 14.1 10.1 17.4 29.7 7.4 43.8l-90.9 127.5c-18.6 26.1-19.2 61.6-1.5 88.3l29.4 44.3c31.3 47.2 31.3 108.3 0 155.5l-29.4 44.3c-17.7 26.7-17.1 62.2 1.5 88.3l90.8 127.4c10.1 14.1 6.8 33.7-7.4 43.8-5.5 4.1-11.8 6-18.1 6z"/><path d="m313.4 676.2c-8.4 0-16.7-3.9-22-11.3l-55.2-77.5c-32.5-45.6-33.6-107.7-2.6-154.4 18.3-27.7 18.3-63.4 0-91.1-30.9-46.7-29.9-108.8 2.7-154.4l55.2-77.5c8.6-12.1 25.4-14.9 37.6-6.3 12.1 8.6 14.9 25.4 6.3 37.6l-55.2 77.5c-19.7 27.6-20.3 65.1-1.6 93.4 30.3 45.7 30.3 104.8 0 150.5-18.7 28.3-18.1 65.8 1.6 93.4l55.2 77.5c8.6 12.1 5.8 28.9-6.3 37.6-4.8 3.4-10.3 5-15.7 5z"/><path d="m1275 775c-6.3 0-12.7-1.9-18.2-5.8-14.1-10.1-17.4-29.7-7.4-43.8l90.8-127.4c18.6-26.1 19.2-61.6 1.5-88.3l-29.4-44.3c-31.3-47.2-31.3-108.3 0-155.5l29.4-44.4c17.7-26.7 17.1-62.2-1.5-88.3l-90.8-127.4c-10.1-14.1-6.8-33.7 7.4-43.8 14.1-10.1 33.7-6.8 43.8 7.4l90.8 127.4c33.6 47.1 34.7 111.2 2.8 159.5l-29.4 44.4c-17.3 26.2-17.3 60 0 86.1l29.4 44.3c31.9 48.3 30.8 112.4-2.7 159.5l-90.8 127.4c-6.3 8.4-15.9 13-25.7 13z"/><path d="m1103.9 676.2c-5.4 0-10.9-1.6-15.6-5-12.1-8.6-14.9-25.4-6.3-37.6l55.2-77.5c19.7-27.6 20.3-65.1 1.6-93.4-30.3-45.7-30.3-104.8 0-150.5 18.7-28.3 18.1-65.8-1.6-93.4l-55.2-77.5c-8.6-12.1-5.8-28.9 6.3-37.6 12.1-8.6 28.9-5.8 37.6 6.3l55.2 77.5c32.5 45.6 33.6 107.6 2.7 154.4-18.3 27.7-18.3 63.4 0 91.1 30.9 46.7 29.9 108.8-2.7 154.4l-55.2 77.5c-5.3 7.3-13.6 11.3-22 11.3z"/><path d="m627 692.6c2.2-17.5 7.5-32.3 15.9-44.3s18.6-21 30.6-26.8 24.6-8.9 37.8-9.3c13.1-.4 25.5 2.4 37.2 8.2s21.3 14.6 29 26.3 11.9 26.3 12.6 43.8c1.5 26.3-5.8 46.5-21.9 60.7s-33.9 21.7-53.6 22.4-38.5-5.5-56.4-18.6c-17.9-13.2-28.3-34-31.2-62.4zm11-604.2c6.6-17.5 15.7-31.2 27.4-41s23.9-15.1 36.7-15.9c12.8-.7 25.2 3.1 37.2 11.5s21.7 21.7 29 39.9c1.5 37.9 2.7 73.7 3.8 107.3s1.8 66 2.2 97.4.2 62.4-.5 93-1.8 62-3.3 94.1c-.7 22.6-8.2 39.6-22.4 50.9s-29.6 16.6-46 15.9-31.4-6.9-44.9-18.6-20.2-28.5-20.2-50.3v-377.6z"/></svg>