<svg height="960" viewBox="0 0 960 960" width="960" xmlns="http://www.w3.org/2000/svg"><g fill="#000" fill-rule="evenodd"><path d="m570.5 635c62.132034 0 112.5 50.367966 112.5 112.5v55.5c0 31.480231-25.519769 57-57 57h-292c-31.480231 0-57-25.519769-57-57v-55.5c0-62.132034 50.367966-112.5 112.5-112.5zm-384-77 157.026701.001494c8.693777 17.673003 20.71988 33.410612 35.258818 46.39247-73.506379 5.425616-131.613215 66.223357-132.768001 140.840717l-.017518 2.265319v35.5h-115c-31.4802307 0-57-25.519769-57-57v-55.5c0-62.132034 50.367966-112.5 112.5-112.5zm587 0c62.132034 0 112.5 50.367966 112.5 112.5v55.5c0 31.480231-25.519769 57-57 57h-115v-35.5l-.017518-2.265319c-1.154786-74.617359-59.261608-135.415031-132.766528-140.833669 14.538703-12.98555 26.564736-28.72549 35.258381-46.4001zm-293.5-188c66.826455 0 121 54.173545 121 121s-54.173545 121-121 121-121-54.173545-121-121 54.173545-121 121-121zm-203-77c50.917423 0 94.48926 31.450187 112.34937 75.984419-37.233462 27.702086-61.34937 72.042548-61.34937 122.015581 0 10.696039 1.104786 21.134041 3.20649 31.206025-16.305047 8.186533-34.717706 12.793975-54.20649 12.793975-66.826455 0-121-54.173545-121-121s54.173545-121 121-121zm406 0c66.826455 0 121 54.173545 121 121s-54.173545 121-121 121c-19.488784 0-37.901443-4.607442-54.208128-12.79248 2.103342-10.073479 3.208128-20.511481 3.208128-31.20752 0-49.973033-24.115908-94.313495-61.344767-122.018426 17.855507-44.531387 61.427344-75.981574 112.344767-75.981574z"/><g fill-rule="nonzero"><path d="m433.351234 65.6369832c35.606422 35.6398348 58.148766 84.2064068 58.148766 137.3644978 0 53.16342-22.54288 101.731147-58.147587 137.363318-7.807474 7.813496-7.802592 20.476795.010905 28.284269 7.813496 7.807474 20.476795 7.802592 28.284269-.010904 42.720229-42.753182 69.852413-101.20838 69.852413-165.636683 0-64.42252-27.131011-122.8751915-69.851234-165.6355015-7.806822-7.8141479-20.47012-7.8200865-28.284268-.0132644s-7.820086 20.4701203-.013264 28.2842681z" transform="matrix(0 1 -1 0 682.501481 -276.498519)"/><path d="m477.725401 256.195201c25.467088-35.332526 39.77534-75.42798 39.77534-118.19446 0-42.7664806-14.308252-82.8619348-39.77534-118.1944611-6.458673-8.9606322-18.958489-10.98887141-27.919121-4.5301991-8.960632 6.4586724-10.988871 18.9584885-4.530199 27.9191207 20.781575 28.831939 32.22466 60.8984485 32.22466 94.8055395 0 33.90709-11.443085 65.9736-32.22466 94.805539-6.458672 8.960632-4.430433 21.460448 4.530199 27.919121 8.960632 6.458672 21.460448 4.430433 27.919121-4.5302z" transform="matrix(0 1 -1 0 617.500741 -341.499259)"/></g></g></svg>