<svg height="960" viewBox="0 0 960 960" width="960" xmlns="http://www.w3.org/2000/svg"><path d="m923.862199 82.8472593h-52.879258v-19.190932c-.042274-35.1388802-28.501195-63.61402343-63.620057-63.65632428h-743.6469269c-35.1189422-.01070684-63.62078544 28.42153658-63.7159571 63.56036968v267.0802003c.04227373 35.13888 28.5011951 63.614023 63.6200571 63.656321h109.2876349v.230291h115.367695c7.561184 15.96045 23.622698 26.146506 41.275358 26.176431 1.18916 0 2.32078-.268673 3.47158-.345437 10.845417 41.542144 48.308547 70.554 91.220076 70.641824h95.899996c5.645973 0 10.222939-4.579578 10.222939-10.22877v-11.207504h68.472597c6.370158.211376 12.348956-3.068363 15.596585-8.555688 3.24763-5.487326 3.24763-12.309603 0-17.796929-3.247629-5.487326-9.226427-8.767064-15.596585-8.555688h-68.472597v-119.808988h68.472597c6.370158.211376 12.348956-3.068363 15.596585-8.555689 3.24763-5.487325 3.24763-12.309603 0-17.796928-3.247629-5.487326-9.226427-8.767065-15.596585-8.555689h-68.472597v-11.207504c0-5.649192-4.576966-10.228767-10.222939-10.228767h-95.899996c-42.911529.087822-80.374659 29.099677-91.220076 70.641821-1.16998 0-2.28242-.345437-3.47158-.345437-17.645726.03732-33.697973 10.222231-41.256178 26.176431h-115.386875v.153528h-109.1917349c-13.512056-.010583-24.4631019-10.967871-24.4736789-24.487629v-267.0802003c.010577-13.5197581 10.9616229-24.4770462 24.4736789-24.4876292h743.6277469c13.512056.010583 24.463102 10.9678711 24.473679 24.4876292v267.0802003c-.010577 13.519758-10.961623 24.477046-24.473679 24.487629h-149.143674v39.168692h149.143674c35.118862-.042298 63.577783-28.517441 63.620057-63.656321v-19.190932h52.898438c19.439628-.063484 35.159015-15.860514 35.13778-35.311315v-158.075707c-.031587-19.4133516-15.735566-35.152012-35.13778-35.2153597zm-3.95108 189.3569257h-48.928178v-150.188234h48.947358z" transform="translate(0 235)"/></svg>