<svg enable-background="new 0 0 1417.3 774.8" viewBox="0 0 1417.3 774.8" xmlns="http://www.w3.org/2000/svg"><path d="m167.5 49.2c10-14 6.7-33.5-7.3-43.4-14-10-33.5-6.7-43.5 7.3l-90.8 127.5c-33.5 47-34.6 111-2.7 159.2l29.4 44.4c17.4 26.3 17.4 60.2 0 86.4l-29.4 44.4c-31.9 48.2-30.8 112.2 2.7 159.2l90.8 127.5c6.1 8.5 15.7 13.1 25.4 13.1 6.3 0 12.6-1.9 18.1-5.8 14-10 17.3-29.4 7.3-43.4l-90.8-127.6c-18.7-26.2-19.3-61.8-1.5-88.7l29.4-44.4c31.2-47.1 31.2-108.1 0-155.2l-29.4-44.4c-17.8-26.8-17.1-62.5 1.5-88.7z"/><path d="m338.6 143.6c10-14 6.7-33.5-7.3-43.4-14-10-33.5-6.7-43.5 7.3l-55.2 77.5c-33.5 47-34.6 111-2.7 159.2 17.4 26.3 17.4 60.2 0 86.4-31.9 48.2-30.8 112.2 2.7 159.2l55.2 77.5c6.1 8.5 15.7 13.1 25.4 13.1 6.3 0 12.6-1.9 18.1-5.8 14-10 17.3-29.4 7.3-43.4l-55.2-77.5c-18.7-26.2-19.3-61.8-1.5-88.7 31.2-47.1 31.2-108.1 0-155.2-17.8-26.8-17.1-62.5 1.5-88.7z"/><path d="m1394.1 299.8c31.9-48.2 30.8-112.2-2.7-159.2l-90.8-127.5c-10-14-29.4-17.3-43.5-7.3-14 10-17.3 29.4-7.3 43.4l90.8 127.5c18.7 26.2 19.3 61.8 1.5 88.7l-29.4 44.4c-31.2 47.1-31.2 108.1 0 155.3l29.4 44.3c17.8 26.8 17.1 62.5-1.5 88.7l-90.8 127.5c-10 14-6.7 33.5 7.3 43.4 5.5 3.9 11.8 5.8 18.1 5.8 9.7 0 19.3-4.6 25.4-13.1l90.8-127.5c33.5-47 34.6-111 2.7-159.2l-29.4-44.3c-17.4-26.3-17.4-60.2 0-86.5z"/><path d="m1184.7 184.9-55.2-77.5c-10-14-29.4-17.3-43.5-7.3-14 10-17.3 29.4-7.3 43.4l55.2 77.5c18.7 26.2 19.3 61.8 1.5 88.7-31.2 47.1-31.2 108.1 0 155.2 17.8 26.8 17.1 62.5-1.5 88.7l-55.2 77.5c-10 14-6.7 33.5 7.3 43.4 5.5 3.9 11.8 5.8 18.1 5.8 9.7 0 19.3-4.6 25.4-13.1l55.2-77.5c33.5-47.1 34.6-111 2.7-159.2-17.4-26.3-17.4-60.2 0-86.5 31.9-48 30.8-112-2.7-159.1z"/><circle cx="708.7" cy="390.9" r="235.1"/></svg>