<svg enable-background="new 0 0 958 728" viewBox="0 0 958 728" xmlns="http://www.w3.org/2000/svg"><g transform="translate(1 116)"><path d="m273.6 568.7h-35.1c-.6-.1-1.1-.1-1.7-.1-109.1-3.5-194.5-91.8-194.5-201.1.1-85.5 54-161.6 134.6-189.9 7.2-2.5 12.5-8.6 14-16 28.1-135.8 149.1-234.3 287.9-234.3 138 0 258.9 97.9 287.5 232.7 1.6 7.6 7.1 13.7 14.5 16.1 66.4 21.6 117.5 77.2 133.5 145.1 1.8 7.5 7.4 13.5 14.8 15.8 7.4 2.2 15.4.3 21.1-5 5.6-5.3 8-13.2 6.2-20.7-18.5-78.5-75.6-143.5-150.5-172.2-37.3-148.5-172.9-255.1-327.1-255.1-155.1 0-291 107.3-327.6 257-92 37.6-152.1 127.1-152.2 226.5 0 131.9 102.6 238.8 233.9 244.3 1.1.2 2.1.2 3.2.2h37.5c11.9 0 21.6-9.7 21.6-21.6 0-12-9.7-21.7-21.6-21.7z"/><path d="m511.5 393h-20.4c-3.8 0-7.2 2.3-8.7 5.7l-54.3 124.3-53.4-124.2c-1.5-3.5-4.9-5.8-8.8-5.8h-20.4c-3.2 0-6.2 1.6-8 4.3s-2.1 6.1-.8 9l80.4 186.9c1.5 3.5 4.9 5.8 8.8 5.8h4.1c3.8 0 7.2-2.3 8.7-5.7l81.5-186.9c1.3-2.9 1-6.3-.8-9-1.7-2.7-4.7-4.4-7.9-4.4z"/><path d="m631.8 388c-38.3-.1-73.7 20.5-92.5 54-9.5 16.7-14.4 35.6-14.3 54.8 0 29.5 10.6 55 31.4 75.8s46.7 31.3 76.9 31.3c29.9 0 55.6-10.6 76.4-31.5s31.3-46.7 31.3-76.6c0-30.2-10.6-56-31.4-76.7s-47-31.1-77.8-31.1zm36.4 169.3c-10.8 6.2-23.1 9.5-35.6 9.3-19.3 0-35.3-6.6-49-20.2s-20.3-29.8-20.3-49.7c-.2-12.7 3-25.2 9.2-36.2 12.4-21.6 35.2-34.9 60.1-35.2 25 .2 48.1 13.4 60.9 35 6.1 10.9 9.3 23.2 9.1 35.6.2 12.6-3 25.1-9.1 36.1-5.9 10.6-14.7 19.4-25.3 25.3z"/><path d="m934.5 538.3c-4-3.1-9.7-2.4-13 1.4-15.9 18.5-35 27.5-58.6 27.5-21.5 0-38.6-6.6-52.6-20.2s-20.6-30-20.6-50.4c0-13.3 3.1-25.5 9.2-36.1 6.2-10.7 15.2-19.4 26-25.4 11.2-6.3 23.9-9.6 36.8-9.5 11.6-.1 23 2.4 33.5 7.3 10.2 5 19.1 12.3 25.9 21.4 1.5 2 3.8 3.3 6.3 3.7 2.5.3 5-.4 7-1.9l14.8-11.4c4.1-3.1 4.9-9 1.9-13.2-9.9-13.7-23-24.7-38.1-32.1-15.3-7.5-32.7-11.4-51.5-11.4-31.4 0-57.9 10.4-78.9 30.8s-31.7 46.1-31.7 76.1c0 28.3 8.8 52.9 26.1 73 20.7 23.9 49.2 36 84.7 36 18.5 0 35.6-3.6 50.8-10.6 15-6.9 28.2-17.3 38.4-30.4 1.6-2 2.3-4.6 2-7.1s-1.7-4.9-3.7-6.4z"/><path d="m480 175c-12.2 0-22 9.8-22 22s9.8 22 22 22 22-9.8 22-22c0-12.1-9.9-22-22-22z"/><path d="m480 297c-12.2 0-22 9.8-22 22s9.8 22 22 22 22-9.8 22-22c0-12.1-9.9-22-22-22z"/><path d="m480 53c-12.2 0-22 9.8-22 22s9.8 22 22 22 22-9.8 22-22c0-12.1-9.9-22-22-22z"/><path d="m385 236c-12.2 0-22 9.8-22 22s9.8 22 22 22 22-9.8 22-22c0-12.1-9.9-22-22-22z"/><path d="m385 114c-12.2 0-22 9.8-22 22s9.8 22 22 22 22-9.8 22-22c0-12.1-9.9-22-22-22z"/><path d="m290 175c-12.2 0-22 9.8-22 22s9.8 22 22 22 22-9.8 22-22c0-12.1-9.9-22-22-22z"/><path d="m575 236c-12.2 0-22 9.8-22 22s9.8 22 22 22 22-9.8 22-22c0-12.1-9.9-22-22-22z"/><path d="m575 114c-12.2 0-22 9.8-22 22s9.8 22 22 22 22-9.8 22-22c0-12.1-9.9-22-22-22z"/><path d="m670 175c-12.2 0-22 9.8-22 22s9.8 22 22 22 22-9.8 22-22c0-12.1-9.9-22-22-22z"/></g></svg>