<svg height="960" viewBox="0 0 960 960" width="960" xmlns="http://www.w3.org/2000/svg"><g transform="translate(0 116)"><path d="m958.390767 427.285023c-18.472789-78.483091-75.669806-143.410627-150.691952-172.21256-37.312909-148.5314-173.079699-255.072463-327.444943-255.072463-155.293234 0-291.311354 107.37198-327.937938 257.00483-92.0519167 37.597649-152.23442292 127.080989-152.315934 226.47343 0 131.95169 102.658833 238.782608 234.182003 244.289854 1.059503.154777 2.128871.231886 3.199631.231886h37.515906c7.73763 0 14.887496-4.125961 18.756311-10.823673 3.868815-6.697711 3.868815-14.949632 0-21.647343-3.868815-6.697712-11.018681-10.823672-18.756311-10.823671h-35.137933c-.560661-.057971-1.121321-.096619-1.691648-.115942-109.232091-3.497585-194.7521183-91.835749-194.7521183-201.111111.0606921-85.461586 54.0525539-161.588712 134.7131343-189.942029 7.186141-2.501506 12.530057-8.591182 14.074507-16.038647 28.033015-135.710145 149.270969-234.2028981 288.15039-234.2028981 138.144762 0 259.199052 97.8647341 287.850726 232.7053141 1.609303 7.56717 7.137348 13.700303 14.499835 16.086956 66.447911 21.603865 117.661329 77.207729 133.649814 145.111111 2.738749 11.637999 14.398017 18.853352 26.041703 16.115941 11.643687-2.737412 18.862565-14.390985 16.123817-26.028985z"/><path d="m492.359867 513.087443c-8.324363-2.084024-23.234823-3.087443-45.561884-3.087443h-37.266491c-2.527909 0-4.952281 1.003296-6.739783 2.789173-1.787501 1.785878-2.791709 4.208047-2.791709 6.73366v186.954334c0 2.525613 1.004208 4.947782 2.791709 6.73366 1.787502 1.785877 4.211874 2.789173 6.739783 2.789173h18.696016c5.264098 0 9.531492-4.263517 9.531492-9.522833v-77.446583h3.862814c24.142583 0 40.482283-1.080605 49.810977-3.309353 13.635731-3.280409 24.567493-9.87017 32.495917-19.57632 7.928425-9.706149 12.071292-22.190998 12.071292-36.837057 0-14.646058-4.162181-27.015128-12.380317-36.904594-8.022112-9.684414-19.00415-16.470347-31.259816-19.315817zm-32.341405 79.01925-22.259462-.270151v-44.488127h23.514876c14.137897 0 20.743308 1.427942 23.785273 2.633975 3.701816 1.462744 6.836234 4.073514 8.942413 7.448456 2.350816 3.55149 3.581969 7.725543 3.534474 11.983139.071735 4.33922-1.159347 8.600404-3.534474 12.233994-2.265817 3.500584-5.601866 6.177151-9.512178 7.631774-3.244763 1.283218-10.18817 2.817292-24.470922 2.82694z"/><path d="m739.551542 510.009651h-3.029219c-3.631521-.000108-6.946896 2.065585-8.547415 5.32559l-66.758591 136.034093-67.376011-136.072684c-1.60559-3.242514-4.910044-5.29665-8.52812-5.29665h-3.02922c-4.738453-.004066-8.757314 3.480265-9.425309 8.171697l-26.76132 186.955223c-.391625 2.733215.422326 5.501854 2.230843 7.588167 1.808518 2.086314 4.433509 3.284913 7.194467 3.284913h18.040255c4.762892 0 8.793148-3.519477 9.434957-8.239228l14.181377-104.013018 53.098162 106.955599c1.608297 3.238765 4.9122 5.287016 8.528121 5.286999h4.775361c3.620236-.003617 6.925241-2.060029 8.528121-5.306294l52.374622-105.932932 14.239261 103.019294c.650081 4.708458 4.672483 8.216446 9.425309 8.219932h18.329671c2.762046.003177 5.389081-1.194441 7.198313-3.281578 1.809231-2.087137 2.621977-4.857668 2.226997-7.591501l-26.925322-186.945576c-.676246-4.685471-4.691584-8.162637-9.42531-8.162046z"/><path d="m865.479323 510h-36.759854c-3.318763 0-6.398558 1.725043-8.130233 4.553979l-11.200796 18.331694c-1.788957 2.938153-1.853422 6.611865-.16865 9.610879s4.85698 4.857303 8.298883 4.861511h19.852445v159.119104c0 5.259316 4.266876 9.522833 9.530333 9.522833h18.568216c5.263458 0 9.530333-4.263517 9.530333-9.522833v-186.954334c0-5.25555-4.260991-9.517508-9.520677-9.522833z"/><path d="m482 336c12.150264 0 22-9.849736 22-22s-9.849736-22-22-22-22 9.849736-22 22c.016067 12.143603 9.856397 21.983933 22 22z"/><path d="m481.999711 458c8.901574 0 16.925903-5.364281 20.328744-13.589773 3.402841-8.225493 1.513504-17.690991-4.786425-23.979785-6.299929-6.288795-15.768752-8.161384-23.98821-4.743995-8.219458 3.417388-13.56952 11.451196-13.55382 20.352758.03749 12.128239 9.871428 21.944796 21.999711 21.960795z"/><path d="m482 213c12.150264 0 22-9.849736 22-22s-9.849736-22-22-22-22 9.849736-22 22c.016067 12.143603 9.856397 21.983933 22 22z"/><path d="m409 375.000304c0-8.900691-5.363219-16.924411-13.587517-20.327827s-17.689037-1.515865-23.978601 4.782047-8.164557 15.765145-4.750234 23.984919c3.414324 8.219775 11.445152 13.572337 20.345836 13.560557 12.132036-.032133 21.954497-9.86763 21.970516-21.999696z"/><path d="m387 274c12.150264 0 22-9.849736 22-22s-9.849736-22-22-22-22 9.849736-22 22c.01072 12.145821 9.854179 21.98928 22 22z"/><path d="m292 292c-12.150264 0-22 9.849736-22 22s9.849736 22 22 22 22-9.849736 22-22c-.01072-12.145821-9.854179-21.98928-22-22z"/><path d="m577 397c12.150264 0 22-9.849736 22-22s-9.849736-22-22-22-22 9.849736-22 22c.016067 12.143603 9.856397 21.983933 22 22z"/><path d="m577 274c12.150264 0 22-9.849736 22-22s-9.849736-22-22-22-22 9.849736-22 22c.01072 12.145821 9.854179 21.98928 22 22z"/><path d="m694 313.990278c-.005369-12.148997-9.857481-21.993856-22.006479-21.990278-12.148999.00358-21.99531 9.854241-21.993521 22.003239.001789 12.148999 9.850999 21.996761 22 21.996761 12.149614-.010727 21.994641-9.860104 22-22.009722z"/></g></svg>