<svg height="960" viewBox="0 0 960 960" width="960" xmlns="http://www.w3.org/2000/svg"><g fill="#000" fill-rule="nonzero"><path d="m275.682132 836h-37.553183c-1.059193 0-2.118385-.096131-3.177577-.192262-131.628721-5.479467-234.46666851-112.377129-234.46666851-244.26885 0-99.687838 60.75912431-189.185791 152.42740651-226.484616 36.686571-149.675954 172.840932-257.054272 328.349626-257.054272 154.545791 0 290.411282 106.513139 327.771884 255.035521 75.106366 28.743166 132.399043 93.727717 150.886764 172.170606 2.696126 11.63185-4.52564 23.2637-16.176756 26.051499-11.651116 2.691668-23.302232-4.518157-26.094648-16.150007-15.984175-67.86848-67.306858-123.528324-133.843396-145.061666-7.318056-2.403275-12.902888-8.555659-14.539822-16.053876-28.598193-134.871781-149.731281-232.733131-288.004026-232.733131-139.043067 0-260.368735 98.534267-288.485478 234.175096-1.540643 7.402086-6.836605 13.55447-14.058371 16.053876-80.691198 28.262511-134.9025878 104.590519-134.9025878 189.954839 0 109.300938 85.6019988 197.645319 194.9876808 201.106035.577741 0 1.155483.096131 1.733224.096131h35.145928c11.939986 0 21.665298 9.70923 21.665298 21.629473s-9.725312 21.725604-21.665298 21.725604z"/><circle cx="482.484703" cy="422" r="17"/><circle cx="482.484703" cy="544" r="17"/><circle cx="482.484703" cy="299" r="17"/><circle cx="387.484703" cy="483" r="17"/><circle cx="387.484703" cy="360" r="17"/><circle cx="292.484703" cy="422" r="17"/><circle cx="577.484703" cy="483" r="17"/><circle cx="577.484703" cy="360" r="17"/><circle cx="672.484703" cy="422" r="17"/><path d="m408.608327 836.326516 15.92096-40.372535h79.604799l15.257587 40.372535h38.608327l-75.09386-196h-37.679605l-75.226535 196zm82.391673-76h-52l26.066496-67zm297 92-33.972327-44.02463c17.163103-19.241379 25.744654-42.118227 25.744654-68.630542 0-28.817734-9.930713-53.246305-29.792138-73.285714-19.861426-20.039409-43.637631-30.059114-71.328617-30.059114-18.136268 0-35.100314 4.610838-50.892138 13.832513s-28.199686 21.657635-37.223585 37.307881c-9.023899 15.650247-13.535849 32.83005-13.535849 51.539409 0 28.019705 9.687421 52.160099 29.062264 72.421183 19.374843 20.261083 43.703983 30.391625 72.987422 30.391625 17.516981 0 33.397274-3.901478 47.64088-11.704433l17.251572 22.211822zm-108.602484-47c-15.370601 0-29.106971-4.921-41.20911-14.763-15.458937-12.590666-23.188406-29.703333-23.188406-51.338 0-19.418 6.139406-35.422333 18.418219-48.013 12.278813-12.590666 27.516909-18.886 45.714286-18.886 17.667357 0 32.728779 6.472667 45.184265 19.418 12.455487 12.945334 18.68323 28.683667 18.68323 47.215 0 14.186667-3.930987 27.132-11.792961 38.836l-17.490683-22.743h-44.256729l34.848862 45.087c-7.773637 3.458-16.077295 5.187-24.910973 5.187zm203.602484 31v-196h-37v196z" stroke="#000" stroke-linejoin="round" stroke-width="4"/></g></svg>