<svg enable-background="new 0 0 992.1 753.5" viewBox="0 0 992.1 753.5" xmlns="http://www.w3.org/2000/svg"><path d="m284.4 708.7h-36.3c-.6-.1-1.2-.1-1.8-.1-113-3.6-201.5-95-201.5-208.1.1-88.5 55.9-167.3 139.4-196.6 7.4-2.6 12.9-8.9 14.5-16.6 29.1-140.5 154.5-242.5 298.1-242.5 142.9 0 268.2 101.3 297.8 240.9 1.7 7.8 7.4 14.2 15 16.6 68.7 22.4 121.7 79.9 138.3 150.2 2.8 12 14.9 19.5 26.9 16.7s19.5-14.9 16.7-26.9c-19.1-81.3-78.3-148.5-155.9-178.3-38.6-153.7-179.1-264-338.8-264-160.6 0-301.3 111.1-339.2 266-95.2 38.9-157.5 131.5-157.6 234.4 0 136.6 106.2 247.1 242.3 252.8 1.1.2 2.2.2 3.3.2h38.8c12.4 0 22.4-10 22.4-22.4 0-12.3-10.1-22.3-22.4-22.3z"/><path d="m530.8 527.4h-21.1c-3.9 0-7.4 2.3-9 5.9l-56.2 128.8-55.2-128.7c-1.5-3.6-5.1-6-9.1-6h-21.1c-5.5 0-9.9 4.4-9.9 9.9 0 1.3.3 2.7.8 3.9l83.2 193.8c1.5 3.6 5.1 6 9.1 6h4.2c3.9 0 7.4-2.3 9-5.9l84.3-193.8c2.2-5-.1-10.8-5.1-13-1.2-.6-2.6-.8-3.9-.9z"/><path d="m655.6 522.6c-39.7-.1-76.4 21.2-95.9 55.8-9.8 17.3-14.9 36.8-14.8 56.7 0 30.5 11 56.9 32.6 78.4s48.4 32.4 79.7 32.4c31 0 57.6-11 79.2-32.5s32.5-48.2 32.5-79.2c0-31.2-11-57.9-32.6-79.3s-48.8-32.3-80.7-32.3zm37.7 175c-11.2 6.4-23.9 9.8-36.9 9.6-20 0-36.6-6.8-50.8-20.9s-21-30.8-21-51.3c-.2-13.1 3.1-26 9.5-37.4 12.9-22.3 36.5-36.1 62.3-36.4 25.9.2 49.9 13.9 63.2 36.1 6.4 11.2 9.6 23.9 9.4 36.8.2 13.1-3.1 25.9-9.5 37.3-6.1 11-15.2 20.1-26.2 26.2z"/><path d="m968.9 677.9c-4.2-3.2-10.1-2.5-13.4 1.4-16.4 19.1-36.3 28.4-60.6 28.4-22.2 0-40-6.8-54.4-20.9s-21.3-31-21.3-52.1c0-13.8 3.2-26.3 9.5-37.3 6.4-11 15.7-20.1 26.9-26.2 11.6-6.5 24.8-9.9 38.1-9.9 12-.1 23.8 2.4 34.7 7.5 10.6 5.1 19.7 12.7 26.8 22.1 3.3 4.3 9.5 5.1 13.8 1.8l15.3-11.7c4.2-3.3 5.1-9.3 2-13.6-10.2-14.2-23.8-25.6-39.5-33.2-15.9-7.8-33.8-11.8-53.3-11.8-32.5 0-59.9 10.7-81.6 31.8s-32.9 47.9-32.9 78.9c0 29.3 9.1 54.7 27 75.5 21.5 24.7 51 37.3 87.7 37.3 19.2 0 36.9-3.7 52.6-11 15.6-7.2 29.2-17.9 39.8-31.4 3.4-4.3 2.6-10.5-1.6-13.9-.1 0-.1-.1-.2-.1z"/><path d="m498 301.6c-12.5 0-22.6 10.1-22.6 22.6s10.1 22.6 22.6 22.6 22.6-10.1 22.6-22.6-10.1-22.6-22.6-22.6z"/><path d="m498 428.1c-12.5 0-22.6 10.1-22.6 22.6s10.1 22.6 22.6 22.6 22.6-10.1 22.6-22.6c0-12.4-10.1-22.5-22.6-22.6z"/><path d="m498 175c-12.5 0-22.6 10.1-22.6 22.6s10.1 22.6 22.6 22.6 22.6-10.1 22.6-22.6-10.1-22.6-22.6-22.6z"/><path d="m399.7 364.9c-12.5 0-22.6 10.1-22.6 22.6s10.1 22.6 22.6 22.6 22.6-10.1 22.6-22.6c.1-12.5-10.1-22.6-22.6-22.6z"/><path d="m399.7 238.2c-12.5 0-22.6 10.1-22.6 22.6s10.1 22.6 22.6 22.6 22.6-10.1 22.6-22.6c.1-12.4-10.1-22.5-22.6-22.6z"/><path d="m301.5 301.6c-12.5 0-22.6 10.1-22.6 22.6s10.1 22.6 22.6 22.6 22.6-10.1 22.6-22.6-10.1-22.6-22.6-22.6z"/><path d="m596.2 364.9c-12.5 0-22.6 10.1-22.6 22.6s10.1 22.6 22.6 22.6 22.6-10.1 22.6-22.6-10.1-22.6-22.6-22.6z"/><path d="m596.2 238.2c-12.5 0-22.6 10.1-22.6 22.6s10.1 22.6 22.6 22.6 22.6-10.1 22.6-22.6c0-12.4-10.1-22.5-22.6-22.6z"/><path d="m694.4 301.6c-12.5 0-22.6 10.1-22.6 22.6s10.1 22.6 22.6 22.6 22.6-10.1 22.6-22.6-10.1-22.6-22.6-22.6z"/></svg>