<?xml version="1.0" encoding="UTF-8"?>
<svg width="960px" height="960px" viewBox="0 0 960 960" version="1.1" xmlns="http://www.w3.org/2000/svg" xmlns:xlink="http://www.w3.org/1999/xlink">
    <title>custom-capabilities/oscillate</title>
    <g id="custom-capabilities/oscillate" stroke="none" stroke-width="1" fill="none" fill-rule="evenodd">
        <path d="M955.141186,422.809968 L906.987634,374.709137 C900.708345,368.436723 891.289598,368.436723 885.002459,374.709137 L676.720868,583.826948 C651.597357,502.271001 576.230562,442.668691 486.215083,442.668691 C399.336071,442.668691 326.064615,498.084911 298.849502,575.460368 L74.8481942,351.704311 C68.5689051,345.431896 59.1501585,345.431896 52.863019,351.704311 L4.70946676,399.805141 C-1.56982225,406.077555 -1.56982225,415.48599 4.70946676,421.766246 L306.169171,722.895893 C337.573093,791.906638 406.659478,840 487.252472,840 C558.426719,840 621.234563,802.358794 655.776821,745.900719 L956.18979,445.816661 C961.432251,438.486708 961.432251,429.070805 955.145691,422.798765 L955.141186,422.809968 Z M485.474381,514 C555.531954,514 612,570.449187 612,640.500093 L612,647.821612 C608.863654,714.728777 553.446284,767 486.525619,767 C416.468046,767 360,710.550813 360,640.499907 L360,636.321382 C362.093325,569.40675 417.511815,514 485.474381,514 L485.474381,514 Z M620.135597,303.288707 L663.054973,240.427823 C554.194793,197.473571 432.765915,197.473571 323.901997,240.427823 L366.821373,303.288707 L147,319 L243.302697,121 L288.310001,187.001871 C419.156056,130.434184 568.843944,130.434184 699.689999,187.001871 L744.697303,121 L841,319 L620.135597,303.288707 Z" id="Shape" fill="#000000" fill-rule="nonzero"></path>
    </g>
</svg>