<?xml version="1.0" encoding="UTF-8"?>
<svg width="600px" height="600px" viewBox="0 0 600 600" version="1.1" xmlns="http://www.w3.org/2000/svg" xmlns:xlink="http://www.w3.org/1999/xlink">
    <title>assets/icon</title>
    <g id="/assets/icon" stroke="none" stroke-width="1" fill="none" fill-rule="evenodd">
        <g id="icon" transform="translate(0.000000, 36.000000)" fill-rule="nonzero">
            <path d="M298.745505,0.0533865774 C299.8044,-0.0372069341 301.231488,0 301.815992,0.063154747 C301.987169,0.200176285 302.116568,0.29889324 302.378563,0.522993419 C303.22432,1.24644744 304.487236,2.38618411 306.129031,3.91635535 C309.412614,6.9766895 314.236002,11.6130552 320.667791,17.8958083 C333.531377,30.4613062 352.843766,49.6226729 379.37889,76.138912 L455.927527,152.633765 C456.987195,153.691602 458.57653,154.013643 459.964399,153.451741 C461.352268,152.889838 462.269901,151.552809 462.295163,150.05572 L462.556065,133.975977 L462.790877,119.502472 L464.724816,117.731595 L466.772892,115.854687 L493.73385,115.854687 L520.69318,115.854687 L522.742884,117.733181 L524.657253,119.487778 L524.87576,169.057482 L525.100787,220.257885 C525.105062,221.240154 525.496453,222.181126 526.190055,222.876673 L562.81417,259.61167 C582.99591,279.854406 593.025107,289.935241 597.290733,295.291704 C599.423542,297.969936 599.922403,299.300828 599.986172,299.756342 C600.049957,300.211856 599.908778,300.659522 599.231192,302.433906 C598.575114,304.151768 597.530629,305.376964 596.604231,305.949529 C596.052647,306.290413 596.056178,306.31045 595.464419,306.451797 C594.87266,306.593059 593.661115,306.757031 591.464462,306.862644 C587.071174,307.07387 578.850883,307.095828 563.140293,307.095828 L530.468847,307.095828 C528.408501,307.096283 526.738381,308.766422 526.737949,310.826768 L526.737949,416.048489 C526.737949,473.970479 526.805241,501.377959 526.207988,514.398762 C525.909357,520.909205 525.285681,523.842996 525.004583,524.47609 C524.86403,524.792679 525.023618,524.557074 524.926354,524.626119 C524.829015,524.695415 524.266619,524.971428 523.359314,525.524624 C522.775578,525.880536 523.336689,525.763568 521.48734,525.968199 C519.637992,526.172829 515.986475,526.341476 509.149934,526.44759 C495.476859,526.659735 468.948147,526.666164 416.51343,526.667666 L319.493774,526.667666 L333.571067,512.5823 L352.91858,493.221704 L373.919552,493.230053 L394.302524,493.238402 L395.108056,494.648859 C404.534891,511.157984 429.554037,509.893715 438.138947,492.666004 C444.241457,480.419892 439.347487,465.686403 427.127248,459.707615 C415.886255,454.207885 402.456625,457.483728 395.845102,467.655315 L394.44276,469.814248 L371.041482,469.855157 L345.619846,469.901076 C344.634971,469.902781 343.690704,470.293755 342.992893,470.988766 L324.374269,489.540523 L312.120033,501.750735 L312.120033,486.717856 L312.120033,464.260751 L335.433256,441.216554 L358.764412,418.15282 L396.195696,418.120259 L433.077449,418.087699 L433.662846,419.031872 C444.163336,435.997512 469.29829,435.063024 477.608522,417.216996 C485.217233,400.877353 473.046904,382.227412 454.903522,382.264231 C445.721126,382.282598 437.306908,387.222954 433.183438,395.19687 L432.977981,395.596363 L403.760217,395.596363 L381.27536,395.596363 L396.401153,380.460793 L417.894583,358.955959 C418.593159,358.256269 418.985509,357.307945 418.985478,356.319221 L418.985478,335.026281 L418.985478,315.280886 L433.176917,301.105769 L447.009614,287.287733 L449.052798,287.746002 C455.217164,289.127405 461.273154,288.077619 467.095801,284.7521 C476.312269,279.488392 480.206814,269.645834 479.056524,260.58281 C477.906243,251.519869 471.700525,242.908684 461.468475,239.914532 C452.125789,237.18053 442.777868,240.139951 436.07945,247.749689 C430.437856,254.158944 428.202815,263.125289 430.926632,270.652039 C430.887392,270.710481 430.902086,270.699628 430.841841,270.780862 C430.01456,271.894684 427.490999,274.521403 422.675609,279.336777 L418.985478,283.026891 L418.985478,258.458108 L418.985478,227.149872 L419.389872,226.94115 C421.924495,225.630462 424.048738,223.531474 425.984172,221.158895 C427.919613,218.786398 429.562945,216.240663 430.38363,213.501485 C434.937826,198.300877 425.02988,182.897726 409.475598,181.304512 C397.323844,180.059864 387.749978,187.411371 384.094729,196.815113 C380.439488,206.218938 382.54988,218.096782 392.37837,225.334996 L394.825956,227.136847 L394.825956,258.523312 L394.825956,282.268647 C391.834801,279.033463 388.177548,275.060239 386.418393,273.125724 L384.231709,270.7205 L384.719265,268.786569 C388.601879,253.367388 376.379186,238.447887 360.209158,238.525197 C347.110777,238.587814 336.812789,248.41885 335.780577,261.673756 C335.415448,266.362394 336.037588,269.180719 338.619516,274.146456 C341.047482,278.816142 343.350959,281.362211 347.310816,283.732954 C353.265776,287.298253 359.691587,288.530795 365.924539,287.070913 L367.752489,286.643702 L381.939027,300.779663 L396.495729,315.284226 L396.495729,331.686736 L396.495729,348.094255 L377.764596,366.836784 C372.325019,372.279909 367.308555,377.228447 363.622081,380.80318 C363.43434,380.985268 363.354408,381.057236 363.173655,381.232061 C363.116883,378.944973 363.048097,376.757404 363.048097,373.884393 L363.048097,360.716984 L363.346502,360.560443 C365.752795,359.297594 367.931597,357.314071 369.966891,355.083172 C372.002177,352.852188 373.780134,350.492716 374.826189,347.981712 C375.971252,345.2331 376.403531,341.812904 376.398121,338.610448 C376.369818,321.857118 360.040002,309.874413 344.243586,315.121089 C326.922617,320.874207 321.347422,343.285477 334.24452,355.936008 C336.080084,357.73644 338.199944,359.483607 340.263198,360.563699 L340.558347,360.718654 L340.558347,382.092995 L340.558347,404.14084 L323.748104,420.368942 L312.120033,431.595908 L312.120033,331.423329 C312.120033,301.464353 312.173716,274.089934 312.258641,254.127886 C312.301137,244.146821 312.351113,236.017616 312.407025,230.351577 C312.434994,227.518557 312.465133,225.299931 312.495081,223.786616 C312.505016,223.286519 312.514701,222.992722 312.524469,222.654927 C312.674339,222.488785 312.770777,222.375741 312.974531,222.157586 C313.762889,221.313432 314.918889,220.119962 316.332009,218.694143 C319.15825,215.842422 323.021043,212.048198 327.208365,208.028137 L341.085086,194.705856 L343.63866,195.239015 C354.135986,197.430925 365.193521,191.778912 370.374592,181.965659 C372.081517,178.732645 372.685206,174.871129 372.685206,170.983314 C372.685206,167.095499 372.081517,163.233983 370.374592,160.000969 C365.49418,150.757192 354.950852,144.821484 345.10624,146.463455 C339.655318,147.372479 333.690765,150.088281 330.143508,153.9872 C324.437102,160.259199 322.262641,169.526103 324.232447,178.119003 L324.437912,179.012582 L311.836347,191.048303 L300.301216,202.064878 L288.87371,190.943942 L276.389555,178.794093 L276.937441,176.506254 C280.318663,162.411787 270.638215,148.930878 255.809274,146.461785 C245.96422,144.822569 235.420875,150.758026 230.540923,160.000969 C228.833998,163.233983 228.230308,167.095499 228.230308,170.983314 C228.230308,174.871129 228.833998,178.732645 230.540923,181.965659 C235.735051,191.803625 246.799715,197.426166 257.343711,195.224404 L259.954359,194.679724 L266.067613,200.598985 C270.190741,204.591745 277.257678,211.528231 281.731516,215.972581 L288.795439,222.989216 L288.793769,257.573379 C288.793252,277.418125 288.543579,312.031091 288.239346,334.428586 L287.805598,366.3614 L268.311329,346.873651 L243.662622,322.234737 L243.705034,301.656043 L243.747446,281.534031 L245.894991,280.121904 C258.601952,271.771037 260.198438,253.111162 249.218231,242.442734 C240.29965,233.777366 226.386979,233.07364 216.401656,240.689807 C213.678616,242.766754 211.508437,246.020306 209.755184,249.58168 C207.383832,254.398556 206.79396,257.276743 207.201601,261.772272 C207.988014,270.444988 212.789161,278.671373 220.129298,281.711695 L220.334755,281.796519 L220.334755,294.014913 L220.334755,299.722112 L205.414427,284.809958 L185.21735,264.625914 L185.21735,245.206625 L185.21735,226.2962 L187.23608,225.020995 C196.332125,219.271467 199.717413,209.11015 197.977084,200.046207 C196.236764,190.98218 189.369774,182.694514 178.777964,180.331786 C163.776151,176.985228 149.36942,188.934621 149.36942,204.501076 C149.36942,213.763138 153.355543,220.900831 161.317102,225.994473 L162.727601,226.896233 L162.727601,249.741477 L162.727601,274.628269 C162.727584,275.619373 163.121832,276.569774 163.823389,277.269849 L186.57404,299.95371 L202.937486,316.268223 L198.029265,316.268223 C191.4313,316.268223 187.946402,316.218129 186.544686,316.059501 C185.598017,313.919771 184.18058,312.08803 182.38656,310.352218 C180.275742,308.310003 177.788407,306.465238 175.13675,305.230441 C158.964977,297.6996 139.988638,309.693743 139.929661,327.508213 C139.870384,345.412183 158.84477,357.400482 175.13675,349.813703 C177.788407,348.578906 180.275742,346.732472 182.38656,344.690257 C184.163515,342.970975 185.564855,341.153845 186.513703,339.041666 C186.663716,339.01328 186.492247,339.041666 187.237708,338.986564 C189.749706,338.793288 195.288442,338.766488 205.967213,338.766488 L226.284948,338.766488 L257.121932,369.611612 L287.960545,400.458323 L287.960545,454.419362 L287.960545,500.926786 L278.465341,491.441393 L263.69829,476.689035 L263.703299,455.686385 L263.709978,435.301802 L265.125369,434.493047 C269.580623,431.948982 272.839727,427.662175 274.822765,422.887794 C276.805812,418.11333 277.548435,412.760122 276.247941,407.77176 C274.580557,401.37603 270.523777,395.893916 264.890557,392.411188 C261.042199,390.032263 258.259982,389.329289 252.034611,389.329289 C245.805474,389.329289 243.027048,390.031345 239.155839,392.419287 C233.106177,396.151061 228.465237,403.122946 227.41525,410.124804 C225.990717,419.624223 230.679973,429.772851 238.885152,434.458733 L240.359244,435.301802 L240.365923,447.31306 L240.367593,452.589792 L238.578782,450.832022 C234.097371,446.430168 222.465059,435.026122 212.721769,425.48212 C205.254496,418.167597 200.859371,413.763322 198.571098,411.21074 C197.674613,410.210713 197.367759,409.753947 197.110047,409.384426 C197.362074,408.498946 197.5196,407.622482 197.610653,406.680898 C197.757551,405.161906 197.773247,403.509165 197.690551,401.821609 C197.525169,398.446414 197.113019,395.121396 195.846304,392.332876 C191.805864,383.439584 183.171219,378.094057 173.137514,378.094057 C159.445446,378.094057 148.60686,388.362741 148.552392,401.713825 C148.525008,408.423639 150.319613,413.893898 154.246584,418.481681 C159.213798,424.284726 165.144855,426.835888 173.194587,426.713159 C174.962425,426.686443 176.712539,426.626916 178.145204,426.551692 C178.846775,426.514957 179.315706,426.424038 179.814976,426.390309 C180.05782,426.575403 180.244158,426.708901 180.625401,427.026242 C181.833122,428.031361 183.63388,429.633675 185.91519,431.743683 C190.477802,435.963616 196.996978,442.233946 205.084956,450.195923 L224.248209,469.060846 L219.317162,469.060846 L207.155866,469.060846 L205.354014,466.63116 C199.607851,458.885252 191.41593,455.038347 182.256042,455.976592 C169.500349,457.283105 160.26037,467.744231 160.26037,480.723122 C160.26037,490.428091 165.732181,499.029758 174.499097,503.012332 C177.390375,504.325692 180.814594,504.779286 184.315531,504.861438 C187.816477,504.943257 191.209154,504.669832 194.130337,503.449312 C196.664643,502.390425 199.078859,500.557933 201.391569,498.490505 C203.704271,496.423159 205.739072,494.333188 207.000961,491.892983 L207.177064,491.552182 L227.124651,491.552182 L247.802764,491.552182 L268.094417,511.742738 L283.07019,526.643538 L184.186717,526.655227 L77.7175083,526.670255 L76.8793659,525.902159 L76.8793659,527.542627 C76.8789951,526.496374 76.4394277,525.498331 75.667804,524.79176 L73.7534347,523.037163 L73.3425121,417.949107 L72.9250689,311.228765 C72.9167332,309.191873 71.2765821,307.537959 69.2398307,307.512603 L35.723713,307.09516 C19.7168054,306.895789 11.2874929,306.766966 6.86958354,306.506482 C4.66063304,306.376239 3.46367326,306.189559 3.04410951,306.0776 C2.62454575,305.965642 3.06965703,306.198826 2.82233866,305.974909 C0.431266067,303.809715 -0.264152469,301.973216 0.0845043951,298.879962 C0.128252437,298.491907 0.00677648134,298.911688 0.144866674,298.651704 C0.282915122,298.391637 0.794232883,297.613356 1.94835465,296.241638 C4.25659817,293.498035 9.03665614,288.393039 18.4177892,278.803535 C37.1800469,259.624694 74.4219616,222.377077 148.366538,148.432451 C214.960391,81.838639 252.277262,44.5915062 273.260309,23.9626849 C283.751833,13.6482742 290.169353,7.48050998 294.062344,3.92866993 C296.008848,2.15275825 297.333437,1.0282499 298.132415,0.417906281 C298.437015,0.185223472 298.602406,0.120210876 298.745539,0.0526435286 L298.745505,0.0533865774 Z" id="path835" fill="#000000"></path>
            <path d="M358.348555,385.79858 C358.307229,385.835482 358.236505,385.90188 358.200171,385.933923 C358.232314,385.882745 358.249513,385.853106 358.348555,385.79858 Z" id="path951" fill="#000000"></path>
            <path d="M179.914178,488.130993 C178.845131,487.3822 177.441545,485.503706 176.795109,483.956562 C175.784571,481.538021 175.784571,480.749121 176.795109,478.33058 C179.026451,472.99023 183.782239,471.40084 188.649443,474.368861 C193.600961,477.388294 194.337606,483.396195 190.256682,487.477119 C187.84356,489.890241 182.874384,490.2044 179.914178,488.130993 L179.914178,488.130993 Z" id="path949" fill="#000005"></path>
            <path d="M413.167323,488.734766 C407.796424,486.434872 406.468354,479.677285 410.549988,475.416978 C413.361943,472.481926 416.438983,471.734453 419.846196,473.158744 C423.427767,474.655904 424.665986,476.51659 424.665986,480.401507 C424.665986,483.041894 424.125205,484.345936 422.256196,486.212483 C419.649898,488.815358 415.83066,489.875246 413.167323,488.734766 Z" id="path947" fill="#000009"></path>
            <path d="M246.411961,420.265358 C244.070372,418.173149 243.685406,417.278852 243.685406,413.931426 C243.685406,410.695891 244.083396,409.691322 246.027896,408.018736 C251.590735,403.233786 259.906745,407.347738 259.947121,414.904619 C259.962399,417.770959 259.516344,418.75676 257.396969,420.540102 C253.849153,423.525397 249.951469,423.427907 246.411961,420.265358 L246.411961,420.265358 Z" id="path945" fill="#000005"></path>
            <path d="M450.608158,412.740494 C443.808877,408.594574 447.795843,397.654942 456.106109,397.654942 C460.742859,397.654942 463.683654,400.646181 463.659525,405.337774 C463.621221,412.717059 456.859519,416.552326 450.608158,412.740494 L450.608158,412.740494 Z" id="path943" fill="#000009"></path>
            <path d="M170.632855,412.095377 C169.944074,411.844753 168.347354,410.677022 167.084588,409.500434 C163.75851,406.401336 163.824099,400.995706 167.229091,397.590723 C173.161383,391.65843 182.458861,396.577671 181.552032,405.168919 C181.043119,409.99032 175.13948,413.735228 170.632855,412.095377 L170.632855,412.095377 Z" id="path941" fill="#000005"></path>
            <path d="M345.041612,344.968808 C341.887228,341.592035 341.722705,337.008969 344.634363,333.623972 C346.306949,331.679472 347.311517,331.281482 350.547052,331.281482 C353.894479,331.281482 354.788776,331.666448 356.880984,334.008037 C359.502235,336.941719 360.038649,340.472687 358.3459,343.65094 C356.809626,346.535397 354.996395,347.506679 351.094537,347.535215 C348.091176,347.557173 347.045247,347.113714 345.041612,344.968808 L345.041612,344.968808 Z" id="path939" fill="#000005"></path>
            <path d="M160.415993,334.566434 C157.302159,332.876891 155.327912,328.845284 155.96124,325.469379 C157.211273,318.806118 165.122013,316.619 170.071327,321.568314 C172.225092,323.722079 172.675354,324.81209 172.599906,327.689542 C172.526269,330.496797 171.988919,331.654292 169.887536,333.531876 C166.959573,336.148009 163.938912,336.477948 160.415993,334.566434 Z" id="path937" fill="#000009"></path>
            <path d="M354.961964,269.291175 C349.311688,262.813576 352.456638,254.471943 360.549099,254.471943 C364.7611,254.471943 367.359057,256.393684 368.357857,260.248187 C369.280882,263.81023 368.674579,266.176423 366.206422,268.644589 C363.572689,271.278313 357.023783,271.654896 354.961964,269.291175 Z" id="path935" fill="#000005"></path>
            <path d="M449.141646,268.183506 C443.028576,260.918534 450.964679,250.891224 459.382429,255.244213 C464.164599,257.717171 465.117763,264.431527 461.237504,268.311786 C459.265202,270.284097 458.078311,270.752226 455.050078,270.752226 C451.890919,270.752226 450.963995,270.349243 449.141646,268.183506 L449.141646,268.183506 Z" id="path933" fill="#000009"></path>
            <path d="M229.909782,268.538049 C225.156891,266.972211 222.395805,263.783472 222.395805,259.860257 C222.395805,257.147244 224.940405,253.405643 227.509083,252.341664 C234.381266,249.495111 242.643251,258.553093 238.684938,264.594246 C237.584065,266.27438 232.539056,269.33595 231.397649,269.016539 C231.2681,268.980305 230.598563,268.764971 229.909782,268.538049 L229.909782,268.538049 Z" id="path931" fill="#000009"></path>
            <path d="M402.230312,211.141344 C398.446391,207.357423 398.303216,203.251586 401.832139,199.722671 C407.210075,194.344726 416.089425,198.024454 416.089425,205.631095 C416.089425,208.350954 415.562962,209.62555 413.648985,211.539518 C410.120071,215.068441 406.014234,214.925266 402.230312,211.141344 L402.230312,211.141344 Z" id="path929" fill="#000009"></path>
            <path d="M168.22577,210.948745 C165.719917,209.193571 163.98504,205.008979 164.5462,202.073461 C165.094069,199.207471 169.236316,195.612459 171.990706,195.612459 C176.96202,195.612459 181.486377,200.245018 181.486377,205.335228 C181.486377,208.983088 177.717141,212.310185 173.584529,212.310185 C171.70626,212.310185 169.294825,211.697537 168.22577,210.948745 Z" id="path927" fill="#000009"></path>
            <path d="M248.068542,178.012965 C246.123858,176.880291 244.102849,172.850913 244.102849,170.106399 C244.102849,166.779027 249.016247,162.217008 252.599896,162.217008 C257.799601,162.217008 262.021404,167.335662 261.043026,172.453732 C260.096365,177.405852 252.565924,180.632445 248.068542,178.012965 L248.068542,178.012965 Z" id="path925" fill="#000009"></path>
            <path d="M341.826999,176.691866 C339.421424,173.63366 338.949446,171.174745 340.099285,167.690698 C341.338899,163.934619 343.785776,162.217008 347.896998,162.217008 C350.440796,162.217008 351.651515,162.771815 353.555431,164.809964 C358.902135,170.533627 355.206603,178.914734 347.336121,178.914734 C344.258012,178.914734 343.258178,178.511317 341.826999,176.691866 Z" id="path903" fill="#000009"></path>
        </g>
    </g>
</svg>